G04 DipTrace 3.3.1.3*
G04 Bottom.gbr*
%MOIN*%
G04 #@! TF.FileFunction,Copper,L2,Bot*
G04 #@! TF.Part,Single*
G04 #@! TA.AperFunction,CopperBalancing*
%ADD14C,0.025*%
%ADD15C,0.02*%
G04 #@! TA.AperFunction,ComponentPad*
%ADD33C,0.06*%
%ADD34R,0.06X0.06*%
%FSLAX26Y26*%
G04*
G70*
G90*
G75*
G01*
G04 Bottom*
%LPD*%
X644940Y1313025D2*
D14*
X4079474D1*
X644940Y1288156D2*
X4079474D1*
X644940Y1263287D2*
X4079474D1*
X644940Y1238419D2*
X4079474D1*
X644940Y1213550D2*
X4079474D1*
X644940Y1188681D2*
X4079474D1*
X644940Y1163812D2*
X4079474D1*
X644940Y1138944D2*
X4079474D1*
X644940Y1114075D2*
X4079474D1*
X644940Y1089206D2*
X4079474D1*
X644940Y1064337D2*
X4079474D1*
X644940Y1039469D2*
X4079474D1*
X644940Y1014600D2*
X4079474D1*
X644940Y989731D2*
X4079474D1*
X644940Y964862D2*
X845054D1*
X926630D2*
X1829285D1*
X1910861D2*
X2813552D1*
X2895129D2*
X3797783D1*
X3879361D2*
X4079474D1*
X644940Y939993D2*
X829336D1*
X942311D2*
X1813604D1*
X1926543D2*
X2797870D1*
X2910810D2*
X3782102D1*
X3895077D2*
X4079474D1*
X644940Y915125D2*
X827434D1*
X944214D2*
X1811701D1*
X1928480D2*
X2795933D1*
X2912713D2*
X3780201D1*
X3896979D2*
X4079474D1*
X644940Y890256D2*
X826824D1*
X944823D2*
X1811092D1*
X1929055D2*
X2795323D1*
X2913322D2*
X3779591D1*
X3897589D2*
X4079474D1*
X644940Y865387D2*
X826824D1*
X944823D2*
X1811092D1*
X1929055D2*
X2795323D1*
X2913322D2*
X3779591D1*
X3897589D2*
X4079474D1*
X644940Y840518D2*
X826824D1*
X944823D2*
X1811092D1*
X1929055D2*
X2795323D1*
X2913322D2*
X3779591D1*
X3897589D2*
X4079474D1*
X644940Y815650D2*
X826824D1*
X944823D2*
X1811092D1*
X1929055D2*
X2795323D1*
X2913322D2*
X3779591D1*
X3897589D2*
X4079474D1*
X644940Y790781D2*
X4079474D1*
X644940Y765912D2*
X4079474D1*
X644940Y741043D2*
X4079474D1*
X644940Y716175D2*
X4079474D1*
X644940Y691306D2*
X4079474D1*
X644940Y666437D2*
X4079474D1*
X644940Y641568D2*
X4079474D1*
X644940Y616699D2*
X4079474D1*
X644940Y591831D2*
X4079474D1*
X644940Y566962D2*
X4079474D1*
X644940Y542093D2*
X4079474D1*
X644940Y517224D2*
X4079474D1*
X644940Y492356D2*
X4079474D1*
X644940Y467487D2*
X4079474D1*
X644940Y442618D2*
X4079474D1*
X3894900Y918895D2*
X3893514Y910139D1*
X3891920Y904814D1*
X3895075Y904819D1*
Y791835D1*
X3782091D1*
Y904819D1*
X3785213D1*
X3783651Y910139D1*
X3782265Y918895D1*
Y927759D1*
X3783651Y936514D1*
X3786391Y944945D1*
X3790415Y952844D1*
X3795626Y960016D1*
X3801894Y966283D1*
X3809066Y971495D1*
X3816965Y975518D1*
X3825395Y978259D1*
X3834151Y979644D1*
X3843014D1*
X3851770Y978259D1*
X3860201Y975518D1*
X3868100Y971495D1*
X3875272Y966283D1*
X3881539Y960016D1*
X3886751Y952844D1*
X3890774Y944945D1*
X3893514Y936514D1*
X3894900Y927759D1*
Y918895D1*
X2910648D2*
X2909262Y910139D1*
X2907668Y904814D1*
X2910823Y904819D1*
Y791835D1*
X2797839D1*
Y904819D1*
X2800961D1*
X2799399Y910139D1*
X2798013Y918895D1*
Y927759D1*
X2799399Y936514D1*
X2802139Y944945D1*
X2806163Y952844D1*
X2811374Y960016D1*
X2817642Y966283D1*
X2824814Y971495D1*
X2832713Y975518D1*
X2841143Y978259D1*
X2849899Y979644D1*
X2858762D1*
X2867518Y978259D1*
X2875949Y975518D1*
X2883848Y971495D1*
X2891020Y966283D1*
X2897287Y960016D1*
X2902499Y952844D1*
X2906522Y944945D1*
X2909262Y936514D1*
X2910648Y927759D1*
Y918895D1*
X1926396D2*
X1925010Y910139D1*
X1923416Y904814D1*
X1926571Y904819D1*
Y791835D1*
X1813587D1*
Y904819D1*
X1816709D1*
X1815147Y910139D1*
X1813761Y918895D1*
Y927759D1*
X1815147Y936514D1*
X1817887Y944945D1*
X1821911Y952844D1*
X1827122Y960016D1*
X1833390Y966283D1*
X1840562Y971495D1*
X1848461Y975518D1*
X1856891Y978259D1*
X1865647Y979644D1*
X1874510D1*
X1883266Y978259D1*
X1891697Y975518D1*
X1899596Y971495D1*
X1906768Y966283D1*
X1913035Y960016D1*
X1918247Y952844D1*
X1922270Y944945D1*
X1925010Y936514D1*
X1926396Y927759D1*
Y918895D1*
X942144D2*
X940759Y910139D1*
X939164Y904814D1*
X942319Y904819D1*
Y791835D1*
X829335D1*
Y904819D1*
X832457D1*
X830895Y910139D1*
X829509Y918895D1*
Y927759D1*
X830895Y936514D1*
X833635Y944945D1*
X837659Y952844D1*
X842870Y960016D1*
X849138Y966283D1*
X856310Y971495D1*
X864209Y975518D1*
X872639Y978259D1*
X881395Y979644D1*
X890259D1*
X899014Y978259D1*
X907445Y975518D1*
X915344Y971495D1*
X922516Y966283D1*
X928783Y960016D1*
X933995Y952844D1*
X938018Y944945D1*
X940759Y936514D1*
X942144Y927759D1*
Y918895D1*
X642445Y433760D2*
X4082016D1*
X4081988Y1337921D1*
X642394Y1337894D1*
X642421Y433732D1*
X3838583Y848327D2*
D15*
Y791870D1*
X3782126Y848327D2*
X3895039D1*
X2854331D2*
Y791870D1*
X2797874Y848327D2*
X2910787D1*
X1870079D2*
Y791870D1*
X1813622Y848327D2*
X1926535D1*
X885827D2*
Y791870D1*
X829370Y848327D2*
X942283D1*
D33*
X3838583Y923327D3*
D34*
Y848327D3*
D33*
X2854331Y923327D3*
D34*
Y848327D3*
D33*
X1870079Y923327D3*
D34*
Y848327D3*
D33*
X885827Y923327D3*
D34*
Y848327D3*
M02*
