G04 DipTrace 3.3.1.3*
G04 TopSilk.gbr*
%MOIN*%
G04 #@! TF.FileFunction,Legend,Top*
G04 #@! TF.Part,Single*
%ADD10C,0.009843*%
%ADD17O,0.04467X0.043737*%
%ADD19C,0.015584*%
%ADD20C,0.032777*%
%ADD21C,0.012511*%
%ADD22C,0.012511*%
%ADD23C,0.012438*%
%ADD24C,0.012438*%
%ADD25C,0.013974*%
%ADD26O,0.015584X0.014044*%
%ADD27O,0.026485X0.032763*%
%ADD28O,0.007829X0.006247*%
%ADD29C,0.014047*%
%ADD30O,0.015657X0.014044*%
%ADD31O,0.012438X0.014044*%
%ADD32O,0.012438X0.010921*%
%ADD45C,0.004632*%
%ADD46C,0.009264*%
%ADD47C,0.006176*%
%ADD48C,0.111163*%
%ADD49C,0.021615*%
%ADD50C,0.00772*%
%FSLAX26Y26*%
G04*
G70*
G90*
G75*
G01*
G04 TopSilk*
%LPD*%
X3934583Y584921D2*
D10*
X3742583D1*
Y674921D1*
X3934583D1*
Y584921D1*
X2950331D2*
X2758331D1*
Y674921D1*
X2950331D1*
Y584921D1*
X1966079D2*
X1774079D1*
Y674921D1*
X1966079D1*
Y584921D1*
X789827Y674921D2*
X981827D1*
Y584921D1*
X789827D1*
Y674921D1*
D17*
X1435911Y1213958D3*
X1289556Y680238D2*
D10*
Y790524D1*
Y585940D2*
Y593673D1*
Y585940D2*
X1387610D1*
Y692131D1*
Y778696D2*
Y892816D1*
X1289556Y880274D2*
Y990559D1*
X1387610Y978666D2*
Y1092852D1*
X1289556Y1080374D2*
Y1185850D1*
X1387610Y1178832D2*
Y1185850D1*
X1289556D1*
D19*
X3127554Y1033347D3*
G36*
X2960630Y1062987D2*
X3044988Y1206753D1*
X3110616Y1062987D1*
X2960630D1*
G37*
G36*
X3124444Y1200262D2*
X3183707D1*
X3191536Y1198712D1*
X3202437Y1194038D1*
X3210266Y1189363D1*
X3218021Y1183117D1*
X3222704Y1176870D1*
X3227386Y1167522D1*
X3228922Y1159702D1*
X3230532Y1148803D1*
X3228922Y1139433D1*
X3224240Y1128512D1*
X3218021Y1122265D1*
X3210266Y1116040D1*
X3200901Y1111344D1*
X3193072Y1108243D1*
X3241434Y1062987D1*
X3124444D1*
Y1200262D1*
G37*
G36*
X3222704D2*
X3366251D1*
X3345985Y1161275D1*
X3317890Y1156601D1*
X3308525Y1064559D1*
X3281966D1*
X3272601Y1156601D1*
X3244580Y1161275D1*
X3222704Y1200262D1*
G37*
G36*
X3380299Y1142556D2*
X3400565D1*
X3420832Y1062987D1*
X3361569D1*
X3380299Y1142556D1*
G37*
G36*
X3537821Y1089502D2*
X3469193Y1126961D1*
X3537821Y1162825D1*
X3528456Y1173746D1*
X3519091Y1179993D1*
X3506653Y1186240D1*
X3494142Y1189363D1*
X3480095D1*
X3467657Y1186240D1*
X3455146Y1181544D1*
X3444244Y1173746D1*
X3434879Y1162825D1*
X3428660Y1151905D1*
X3425514Y1139433D1*
X3423978Y1126961D1*
X3425514Y1112917D1*
X3428660Y1100423D1*
X3436416Y1087952D1*
X3445781Y1078604D1*
X3456682Y1070784D1*
X3469193Y1066110D1*
X3480095Y1062987D1*
X3494142D1*
X3506653Y1066110D1*
X3520701Y1072357D1*
X3537821Y1089502D1*
G37*
G36*
X3539357Y1064559D2*
X3603376Y1209633D1*
X3692270Y1062987D1*
X3539357Y1064559D1*
G37*
D20*
X3390396Y1185454D3*
G36*
X3043305Y1033347D2*
X3055816D1*
Y995910D1*
X3043305D1*
Y1033347D1*
G37*
D21*
X3049561Y1034909D3*
D22*
Y995910D3*
G36*
X3060499Y1033347D2*
X3072937D1*
Y995910D1*
X3060499D1*
Y1033347D1*
G37*
D23*
X3066718Y1034909D3*
D24*
Y995910D3*
G36*
X3101032Y1033347D2*
X3113543D1*
Y995910D1*
X3101032D1*
Y1033347D1*
G37*
D21*
X3107287Y1034909D3*
D22*
Y995910D3*
G36*
X3193072Y1031797D2*
X3205583D1*
Y994360D1*
X3193072D1*
Y1031797D1*
G37*
D21*
X3199328Y1033358D3*
Y994349D3*
D25*
X3164209Y1015404D3*
D26*
X3163404Y998258D3*
D19*
X3573708Y1033347D3*
G36*
X3180561Y1041145D2*
X3218021D1*
Y1028673D1*
X3180561D1*
Y1041145D1*
G37*
D21*
X3182134Y1034909D3*
D23*
X3216485D3*
G36*
X3230532Y1033347D2*
X3242970D1*
Y995910D1*
X3230532D1*
Y1033347D1*
G37*
D23*
X3236751Y1034909D3*
D24*
Y995910D3*
G36*
X3285112Y1033347D2*
X3297623D1*
Y1014629D1*
X3285112D1*
Y1033347D1*
G37*
D21*
X3291368Y1034909D3*
G36*
X3236751Y1041145D2*
X3271065D1*
Y1008382D1*
X3236751D1*
Y1041145D1*
G37*
G36*
X3325645Y1033347D2*
X3338156D1*
Y1019303D1*
X3325645D1*
Y1033347D1*
G37*
D21*
X3331901Y1034909D3*
D27*
X3268724Y1024763D3*
G36*
X3531602Y1031797D2*
X3544040D1*
Y994360D1*
X3531602D1*
Y1031797D1*
G37*
D23*
X3537821Y1033358D3*
Y994349D3*
G36*
X3519091Y1041145D2*
X3556551D1*
Y1028673D1*
X3519091D1*
Y1041145D1*
G37*
D21*
X3520664Y1034909D3*
X3554978D3*
G36*
X3398956Y1033347D2*
X3411467D1*
Y995910D1*
X3398956D1*
Y1033347D1*
G37*
D21*
X3405211Y1034909D3*
D22*
Y995910D3*
G36*
X3381835Y1033347D2*
X3394346D1*
Y995910D1*
X3381835D1*
Y1033347D1*
G37*
D21*
X3388091Y1034909D3*
D22*
Y995910D3*
G36*
X3341302Y1033347D2*
X3353740D1*
Y995910D1*
X3341302D1*
Y1033347D1*
G37*
D23*
X3347521Y1034909D3*
D24*
Y995910D3*
G36*
X3288259Y1017752D2*
X3297623D1*
Y1008382D1*
X3288259D1*
Y1017752D1*
G37*
D28*
X3367020Y1009955D3*
D29*
X3610400Y1015404D3*
D30*
X3609595Y998258D3*
G36*
X3575281Y1041145D2*
X3612741D1*
Y1028673D1*
X3575281D1*
Y1041145D1*
G37*
D23*
X3576817Y1034909D3*
D21*
X3611168D3*
G36*
X3570599Y1022426D2*
X3608059D1*
Y1011505D1*
X3570599D1*
Y1022426D1*
G37*
D31*
X3572135Y1018528D3*
G36*
X3570599Y1002157D2*
X3608059D1*
Y991236D1*
X3570599D1*
Y1002157D1*
G37*
G36*
X3066718Y1041145D2*
X3110397Y1002157D1*
X3108860Y989663D1*
X3102568Y992787D1*
X3066718Y1023999D1*
Y1041145D1*
G37*
G36*
X3455146Y1033347D2*
X3467657D1*
Y995910D1*
X3455146D1*
Y1033347D1*
G37*
D21*
X3461401Y1034909D3*
D22*
Y995910D3*
G36*
X3495679Y1033347D2*
X3508190D1*
Y995910D1*
X3495679D1*
Y1033347D1*
G37*
D21*
X3501934Y1034909D3*
D22*
Y995910D3*
G36*
X3461365Y1041145D2*
X3505044Y1002157D1*
X3503507Y989663D1*
X3497288Y992787D1*
X3461365Y1023999D1*
Y1041145D1*
G37*
G36*
X3129127D2*
X3166514D1*
Y1028673D1*
X3129127D1*
Y1041145D1*
G37*
D23*
X3130663Y1034909D3*
X3164977D3*
G36*
X3124444Y1022426D2*
X3161904D1*
Y1011505D1*
X3124444D1*
Y1022426D1*
G37*
D31*
X3125981Y1018528D3*
D32*
X3570599Y996697D3*
G36*
X3124444Y1002157D2*
X3161904D1*
Y991236D1*
X3124444D1*
Y1002157D1*
G37*
D32*
Y996697D3*
D23*
X3160295Y997472D3*
D22*
X3274174Y995910D3*
G36*
X3249262Y1009955D2*
X3269529Y991236D1*
X3278894Y1000584D1*
X3266382Y1013078D1*
X3249262Y1009955D1*
G37*
G36*
X3310061Y989663D2*
X3320963D1*
X3331937Y997483D1*
X3336620Y1008382D1*
X3338156Y1020876D1*
X3325645Y1022426D1*
X3324109Y1009955D1*
X3310061Y989663D1*
G37*
G36*
X3285112Y1020876D2*
Y1005281D1*
X3296014Y991236D1*
X3313207Y989663D1*
X3327255Y999034D1*
X3319426Y1003708D1*
X3313207Y1000584D1*
X3303842Y1002157D1*
X3285112Y1020876D1*
G37*
G36*
X3349058Y1041145D2*
X3367788Y1023999D1*
X3384981Y1039594D1*
X3391200Y1030224D1*
X3370934Y1009955D1*
X3363105D1*
X3349058Y1023999D1*
Y1041145D1*
G37*
G36*
X3119762Y1031797D2*
X3132200D1*
Y1019303D1*
X3119762D1*
Y1031797D1*
G37*
G36*
X3160295Y1013078D2*
X3171196D1*
Y999034D1*
X3160295D1*
Y1013078D1*
G37*
G36*
X3405248Y1042717D2*
X3442635D1*
Y1030224D1*
X3405248D1*
Y1042717D1*
G37*
D24*
X3406784Y1036471D3*
X3441098D3*
G36*
X3403638Y1022426D2*
X3441098D1*
Y1009955D1*
X3403638D1*
Y1022426D1*
G37*
D21*
X3405211Y1016190D3*
D23*
X3439562D3*
G36*
X3405248Y1002157D2*
X3442635D1*
Y989663D1*
X3405248D1*
Y1002157D1*
G37*
D24*
X3406784Y995910D3*
X3441098D3*
D21*
X3606486Y997472D3*
G36*
X3565916Y1031797D2*
X3578354D1*
Y1019303D1*
X3565916D1*
Y1031797D1*
G37*
G36*
X3606449Y1013078D2*
X3617424D1*
Y999034D1*
X3606449D1*
Y1013078D1*
G37*
G36*
X3300923Y769132D2*
X3327441D1*
X3332113Y737934D1*
X3350843Y730130D1*
X3375803Y750420D1*
X3396071Y730130D1*
X3375803Y705176D1*
X3383611Y688007D1*
X3414801Y683325D1*
Y655249D1*
X3383611Y652127D1*
X3375803Y633416D1*
X3394513Y608443D1*
X3375803Y589732D1*
X3350843Y608443D1*
X3339921Y603779D1*
X3324326Y641220D1*
X3335248Y650566D1*
X3343036Y661492D1*
Y673978D1*
X3339921Y684886D1*
X3330556Y692689D1*
X3319633Y697372D1*
X3307153D1*
X3296231Y691129D1*
X3290001Y681764D1*
X3286886Y669296D1*
X3290001Y656809D1*
X3297808Y645884D1*
X3305596Y641220D1*
X3290001Y603779D1*
X3279078Y608443D1*
X3254118Y589732D1*
X3235408Y608443D1*
X3254118Y634976D1*
X3246311Y652127D1*
X3215121Y655249D1*
Y683325D1*
X3247888Y686446D1*
X3254118Y705176D1*
X3233851Y730130D1*
X3254118Y748860D1*
X3279078Y730130D1*
X3297808Y736373D1*
X3300923Y769132D1*
G37*
X3813142Y560387D2*
D45*
X3826042D1*
X3830353Y561846D1*
X3831812Y563272D1*
X3833238Y566124D1*
Y569009D1*
X3831812Y571861D1*
X3830353Y573320D1*
X3826042Y574746D1*
X3813142D1*
Y544602D1*
X3823190Y560387D2*
X3833238Y544602D1*
X3856860D2*
Y574713D1*
X3842501Y554650D1*
X3864023D1*
X2829603Y560387D2*
X2842503D1*
X2846814Y561846D1*
X2848273Y563272D1*
X2849699Y566124D1*
Y569009D1*
X2848273Y571861D1*
X2846814Y573320D1*
X2842503Y574746D1*
X2829603D1*
Y544602D1*
X2839651Y560387D2*
X2849699Y544602D1*
X2861848Y574713D2*
X2877599D1*
X2869010Y563239D1*
X2873322D1*
X2876173Y561813D1*
X2877599Y560387D1*
X2879058Y556076D1*
Y553224D1*
X2877599Y548913D1*
X2874747Y546028D1*
X2870436Y544602D1*
X2866125D1*
X2861848Y546028D1*
X2860422Y547487D1*
X2858962Y550339D1*
X1845351Y560387D2*
X1858251D1*
X1862562Y561846D1*
X1864021Y563272D1*
X1865447Y566124D1*
Y569009D1*
X1864021Y571861D1*
X1862562Y573320D1*
X1858251Y574746D1*
X1845351D1*
Y544602D1*
X1855399Y560387D2*
X1865447Y544602D1*
X1876170Y567550D2*
Y568976D1*
X1877596Y571861D1*
X1879022Y573287D1*
X1881907Y574713D1*
X1887644D1*
X1890495Y573287D1*
X1891921Y571861D1*
X1893381Y568976D1*
Y566124D1*
X1891921Y563239D1*
X1889070Y558961D1*
X1874711Y544602D1*
X1894807D1*
X867549Y560387D2*
X880449D1*
X884760Y561846D1*
X886219Y563272D1*
X887645Y566124D1*
Y569009D1*
X886219Y571861D1*
X884760Y573320D1*
X880449Y574746D1*
X867549D1*
Y544602D1*
X877597Y560387D2*
X887645Y544602D1*
X896909Y568976D2*
X899794Y570435D1*
X904105Y574713D1*
Y544602D1*
X1768533Y885427D2*
D46*
Y888279D1*
X1771385Y894049D1*
X1774237Y896901D1*
X1780007Y899753D1*
X1791481D1*
X1797185Y896901D1*
X1800037Y894049D1*
X1802955Y888279D1*
Y882575D1*
X1800037Y876805D1*
X1794333Y868249D1*
X1765615Y839531D1*
X1805807D1*
X2752634Y881003D2*
X2784138D1*
X2766960Y858055D1*
X2775582D1*
X2781286Y855203D1*
X2784138Y852351D1*
X2787056Y843729D1*
Y838026D1*
X2784138Y829404D1*
X2778434Y823633D1*
X2769812Y820782D1*
X2761190D1*
X2752634Y823633D1*
X2749782Y826552D1*
X2746864Y832255D1*
X3758603Y820782D2*
Y881003D1*
X3729885Y840878D1*
X3772929D1*
X3012611Y916668D2*
D47*
X3014513Y914767D1*
X3016458Y916668D1*
X3014513Y918613D1*
X3012611Y916668D1*
X3014513Y903271D2*
Y876476D1*
X3028810Y903271D2*
Y876476D1*
Y895621D2*
X3034558Y901369D1*
X3038404Y903271D1*
X3044108D1*
X3047955Y901369D1*
X3049856Y895621D1*
Y876476D1*
X3083254Y897523D2*
X3081353Y901369D1*
X3075605Y903271D1*
X3069857D1*
X3064109Y901369D1*
X3062208Y897523D1*
X3064109Y893720D1*
X3067956Y891775D1*
X3077506Y889873D1*
X3081353Y887972D1*
X3083254Y884125D1*
Y882224D1*
X3081353Y878421D1*
X3075605Y876476D1*
X3069857D1*
X3064109Y878421D1*
X3062208Y882224D1*
X3101354Y916668D2*
Y884125D1*
X3103255Y878421D1*
X3107102Y876476D1*
X3110904D1*
X3095606Y903271D2*
X3109003D1*
X3123256D2*
Y876476D1*
Y891775D2*
X3125201Y897523D1*
X3129004Y901369D1*
X3132850Y903271D1*
X3138599D1*
X3150950D2*
Y884125D1*
X3152851Y878421D1*
X3156698Y876476D1*
X3162446D1*
X3166249Y878421D1*
X3171997Y884125D1*
Y903271D2*
Y876476D1*
X3184348Y903271D2*
Y876476D1*
Y895621D2*
X3190096Y901369D1*
X3193943Y903271D1*
X3199647D1*
X3203493Y901369D1*
X3205395Y895621D1*
Y876476D1*
Y895621D2*
X3211143Y901369D1*
X3214989Y903271D1*
X3220693D1*
X3224540Y901369D1*
X3226485Y895621D1*
Y876476D1*
X3238837Y891775D2*
X3261785D1*
Y895621D1*
X3259883Y899468D1*
X3257982Y901369D1*
X3254135Y903271D1*
X3248387D1*
X3244585Y901369D1*
X3240738Y897523D1*
X3238837Y891775D1*
Y887972D1*
X3240738Y882224D1*
X3244585Y878421D1*
X3248387Y876476D1*
X3254135D1*
X3257982Y878421D1*
X3261785Y882224D1*
X3274136Y903271D2*
Y876476D1*
Y895621D2*
X3279884Y901369D1*
X3283731Y903271D1*
X3289435D1*
X3293282Y901369D1*
X3295183Y895621D1*
Y876476D1*
X3313282Y916668D2*
Y884125D1*
X3315183Y878421D1*
X3319030Y876476D1*
X3322833D1*
X3307534Y903271D2*
X3320932D1*
X3356231Y897523D2*
X3354330Y901369D1*
X3348582Y903271D1*
X3342833D1*
X3337085Y901369D1*
X3335184Y897523D1*
X3337085Y893720D1*
X3340932Y891775D1*
X3350483Y889873D1*
X3354330Y887972D1*
X3356231Y884125D1*
Y882224D1*
X3354330Y878421D1*
X3348582Y876476D1*
X3342833D1*
X3337085Y878421D1*
X3335184Y882224D1*
X3370484Y880323D2*
X3368582Y878377D1*
X3370484Y876476D1*
X3372429Y878377D1*
X3370484Y880323D1*
X3407728Y903271D2*
Y876476D1*
Y897523D2*
X3403926Y901369D1*
X3400079Y903271D1*
X3394375D1*
X3390528Y901369D1*
X3386726Y897523D1*
X3384780Y891775D1*
Y887972D1*
X3386726Y882224D1*
X3390528Y878421D1*
X3394375Y876476D1*
X3400079D1*
X3403926Y878421D1*
X3407728Y882224D1*
X3420080Y903271D2*
Y876476D1*
Y891775D2*
X3422025Y897523D1*
X3425828Y901369D1*
X3429674Y903271D1*
X3435423D1*
X3453522Y916668D2*
Y884125D1*
X3455423Y878421D1*
X3459270Y876476D1*
X3463073D1*
X3447774Y903271D2*
X3461171D1*
X3475424Y916668D2*
X3477325Y914767D1*
X3479271Y916668D1*
X3477325Y918613D1*
X3475424Y916668D1*
X3477325Y903271D2*
Y876476D1*
X3514614Y897523D2*
X3510767Y901369D1*
X3506921Y903271D1*
X3501217D1*
X3497370Y901369D1*
X3493568Y897523D1*
X3491622Y891775D1*
Y887972D1*
X3493568Y882224D1*
X3497370Y878421D1*
X3501217Y876476D1*
X3506921D1*
X3510767Y878421D1*
X3514614Y882224D1*
X3549914Y903271D2*
Y876476D1*
Y897523D2*
X3546111Y901369D1*
X3542264Y903271D1*
X3536560D1*
X3532714Y901369D1*
X3528911Y897523D1*
X3526966Y891775D1*
Y887972D1*
X3528911Y882224D1*
X3532714Y878421D1*
X3536560Y876476D1*
X3542264D1*
X3546111Y878421D1*
X3549914Y882224D1*
X3564166Y880323D2*
X3562265Y878377D1*
X3564166Y876476D1*
X3566112Y878377D1*
X3564166Y880323D1*
X3601455Y897523D2*
X3597608Y901369D1*
X3593762Y903271D1*
X3588058D1*
X3584211Y901369D1*
X3580409Y897523D1*
X3578463Y891775D1*
Y887972D1*
X3580409Y882224D1*
X3584211Y878421D1*
X3588058Y876476D1*
X3593762D1*
X3597608Y878421D1*
X3601455Y882224D1*
X3636799Y897523D2*
X3632952Y901369D1*
X3629105Y903271D1*
X3623401D1*
X3619555Y901369D1*
X3615752Y897523D1*
X3613807Y891775D1*
Y887972D1*
X3615752Y882224D1*
X3619555Y878421D1*
X3623401Y876476D1*
X3629105D1*
X3632952Y878421D1*
X3636799Y882224D1*
X2041176Y526856D2*
D48*
Y1249516D1*
X1696559Y768008D1*
X2213086D1*
X796863Y869311D2*
D46*
X802633Y872230D1*
X811255Y880785D1*
Y820564D1*
X2177808Y1250312D2*
D48*
Y526856D1*
X2590871D1*
X2266093Y1085986D2*
D47*
X2292888Y1097482D1*
X2266093Y1108933D1*
X2260389Y1121285D2*
X2258444Y1125132D1*
X2252740Y1130880D1*
X2292888D1*
X2289041Y1145132D2*
X2290986Y1143231D1*
X2292888Y1145132D1*
X2290986Y1147078D1*
X2289041Y1145132D1*
X2252740Y1170925D2*
X2254641Y1165177D1*
X2260389Y1161330D1*
X2269940Y1159429D1*
X2275688D1*
X2285238Y1161330D1*
X2290986Y1165177D1*
X2292888Y1170925D1*
Y1174728D1*
X2290986Y1180476D1*
X2285238Y1184278D1*
X2275688Y1186224D1*
X2269940D1*
X2260389Y1184278D1*
X2254641Y1180476D1*
X2252740Y1174728D1*
Y1170925D1*
X2260389Y1184278D2*
X2285238Y1161330D1*
X2365011Y750811D2*
D49*
X2278038D1*
Y610139D1*
X2365011D1*
X2278038Y683802D2*
X2331584D1*
X2408240Y750811D2*
Y610139D1*
X2455131D1*
X2475249Y616948D1*
X2488713Y630257D1*
X2495367Y643721D1*
X2502022Y663684D1*
Y697266D1*
X2495367Y717384D1*
X2488713Y730693D1*
X2475249Y744156D1*
X2455131Y750811D1*
X2408240D1*
X3167755Y537897D2*
D45*
X3166329Y540749D1*
X3163444Y543634D1*
X3160592Y545060D1*
X3154855D1*
X3151970Y543634D1*
X3149118Y540749D1*
X3147659Y537897D1*
X3146233Y533586D1*
Y526390D1*
X3147659Y522112D1*
X3149118Y519227D1*
X3151970Y516375D1*
X3154855Y514916D1*
X3160592D1*
X3163444Y516375D1*
X3166329Y519227D1*
X3167755Y522112D1*
X3198541Y537897D2*
X3197115Y540749D1*
X3194230Y543634D1*
X3191378Y545060D1*
X3185641D1*
X3182756Y543634D1*
X3179904Y540749D1*
X3178445Y537897D1*
X3177019Y533586D1*
Y526390D1*
X3178445Y522112D1*
X3179904Y519227D1*
X3182756Y516375D1*
X3185641Y514916D1*
X3191378D1*
X3194230Y516375D1*
X3197115Y519227D1*
X3198541Y522112D1*
X3236965Y545060D2*
Y514916D1*
X3249898D1*
X3254209Y516375D1*
X3255635Y517801D1*
X3257061Y520653D1*
Y524964D1*
X3255635Y527849D1*
X3254209Y529275D1*
X3249898Y530701D1*
X3254209Y532160D1*
X3255635Y533586D1*
X3257061Y536438D1*
Y539323D1*
X3255635Y542175D1*
X3254209Y543634D1*
X3249898Y545060D1*
X3236965D1*
Y530701D2*
X3249898D1*
X3266324Y545060D2*
X3277798Y530701D1*
Y514916D1*
X3289272Y545060D2*
X3277798Y530701D1*
X3298536Y529971D2*
X3315117D1*
X3344476Y540749D2*
X3341624Y543634D1*
X3337313Y545060D1*
X3331576D1*
X3327265Y543634D1*
X3324380Y540749D1*
Y537897D1*
X3325839Y535012D1*
X3327265Y533586D1*
X3330117Y532160D1*
X3338739Y529275D1*
X3341624Y527849D1*
X3343050Y526390D1*
X3344476Y523538D1*
Y519227D1*
X3341624Y516375D1*
X3337313Y514916D1*
X3331576D1*
X3327265Y516375D1*
X3324380Y519227D1*
X3376721Y514916D2*
X3365214Y545060D1*
X3353740Y514916D1*
X3358051Y524964D2*
X3372410D1*
X3429504Y514916D2*
Y545027D1*
X3415145Y524964D1*
X3436667D1*
X3447356Y517801D2*
X3445930Y516342D1*
X3447356Y514916D1*
X3448816Y516342D1*
X3447356Y517801D1*
X3466701Y545027D2*
X3462390Y543601D1*
X3459505Y539290D1*
X3458079Y532127D1*
Y527816D1*
X3459505Y520653D1*
X3462390Y516342D1*
X3466701Y514916D1*
X3469553D1*
X3473864Y516342D1*
X3476716Y520653D1*
X3478175Y527816D1*
Y532127D1*
X3476716Y539290D1*
X3473864Y543601D1*
X3469553Y545027D1*
X3466701D1*
X3476716Y539290D2*
X3459505Y520653D1*
X1519675Y754177D2*
D46*
Y757029D1*
X1522527Y762799D1*
X1525378Y765651D1*
X1531149Y768503D1*
X1542623D1*
X1548326Y765651D1*
X1551178Y762799D1*
X1554097Y757029D1*
Y751325D1*
X1551178Y745555D1*
X1545474Y737000D1*
X1516756Y708282D1*
X1556948D1*
X1524208Y1144643D2*
X1557370D1*
X1540756Y1066542D2*
Y1014876D1*
X1514956Y1040675D2*
X1566622D1*
X1544048Y906659D2*
Y966881D1*
X1515330Y926755D1*
X1558374D1*
X1524914Y866350D2*
D50*
X1551167D1*
X1536852Y847226D1*
X1544037D1*
X1548790Y844850D1*
X1551167Y842473D1*
X1553599Y835288D1*
Y830535D1*
X1551167Y823350D1*
X1546414Y818541D1*
X1539228Y816165D1*
X1532043D1*
X1524914Y818541D1*
X1522537Y820973D1*
X1520105Y825726D1*
X1525718Y650781D2*
D46*
X1531489Y653699D1*
X1540111Y662255D1*
Y602033D1*
M02*
