<svg version="1.1" xmlns="http://www.w3.org/2000/svg" xmlns:xlink="http://www.w3.org/1999/xlink" stroke-linecap="round" stroke-linejoin="round" stroke-width="0" fill-rule="evenodd" width="3.464622in" height="0.9291889999999999in" viewBox="629.894 421.232 3464.622 929.189" id="exVGUtKl4NwoibYRodxR"><defs><circle cx="0" cy="0" r="30" id="exVGUtKl4NwoibYRodxR_pad-33"/><rect x="-30" y="-30" width="60" height="60" id="exVGUtKl4NwoibYRodxR_pad-34"/></defs><g transform="translate(0,1771.653) scale(1,-1)" fill="currentColor" stroke="currentColor"><path d="M 644.94 1313.025 4079.474 1313.025 M 644.94 1288.156 4079.474 1288.156 M 644.94 1263.287 4079.474 1263.287 M 644.94 1238.419 4079.474 1238.419 M 644.94 1213.55 4079.474 1213.55 M 644.94 1188.681 4079.474 1188.681 M 644.94 1163.812 4079.474 1163.812 M 644.94 1138.944 4079.474 1138.944 M 644.94 1114.075 4079.474 1114.075 M 644.94 1089.206 4079.474 1089.206 M 644.94 1064.337 4079.474 1064.337 M 644.94 1039.469 4079.474 1039.469 M 644.94 1014.6 4079.474 1014.6 M 644.94 989.731 4079.474 989.731 M 644.94 964.862 845.054 964.862 M 926.63 964.862 1829.285 964.862 M 1910.861 964.862 2813.552 964.862 M 2895.129 964.862 3797.783 964.862 M 3879.361 964.862 4079.474 964.862 M 644.94 939.993 829.336 939.993 M 942.311 939.993 1813.604 939.993 M 1926.543 939.993 2797.87 939.993 M 2910.81 939.993 3782.102 939.993 M 3895.077 939.993 4079.474 939.993 M 644.94 915.125 827.434 915.125 M 944.214 915.125 1811.701 915.125 M 1928.48 915.125 2795.933 915.125 M 2912.713 915.125 3780.201 915.125 M 3896.979 915.125 4079.474 915.125 M 644.94 890.256 826.824 890.256 M 944.823 890.256 1811.092 890.256 M 1929.055 890.256 2795.323 890.256 M 2913.322 890.256 3779.591 890.256 M 3897.589 890.256 4079.474 890.256 M 644.94 865.387 826.824 865.387 M 944.823 865.387 1811.092 865.387 M 1929.055 865.387 2795.323 865.387 M 2913.322 865.387 3779.591 865.387 M 3897.589 865.387 4079.474 865.387 M 644.94 840.518 826.824 840.518 M 944.823 840.518 1811.092 840.518 M 1929.055 840.518 2795.323 840.518 M 2913.322 840.518 3779.591 840.518 M 3897.589 840.518 4079.474 840.518 M 644.94 815.65 826.824 815.65 M 944.823 815.65 1811.092 815.65 M 1929.055 815.65 2795.323 815.65 M 2913.322 815.65 3779.591 815.65 M 3897.589 815.65 4079.474 815.65 M 644.94 790.781 4079.474 790.781 M 644.94 765.912 4079.474 765.912 M 644.94 741.043 4079.474 741.043 M 644.94 716.175 4079.474 716.175 M 644.94 691.306 4079.474 691.306 M 644.94 666.437 4079.474 666.437 M 644.94 641.568 4079.474 641.568 M 644.94 616.699 4079.474 616.699 M 644.94 591.831 4079.474 591.831 M 644.94 566.962 4079.474 566.962 M 644.94 542.093 4079.474 542.093 M 644.94 517.224 4079.474 517.224 M 644.94 492.356 4079.474 492.356 M 644.94 467.487 4079.474 467.487 M 644.94 442.618 4079.474 442.618 M 3894.9 918.895 3893.514 910.139 3891.92 904.814 3895.075 904.819 3895.075 791.835 3782.091 791.835 3782.091 904.819 3785.213 904.819 3783.651 910.139 3782.265 918.895 3782.265 927.759 3783.651 936.514 3786.391 944.945 3790.415 952.844 3795.626 960.016 3801.894 966.283 3809.066 971.495 3816.965 975.518 3825.395 978.259 3834.151 979.644 3843.014 979.644 3851.77 978.259 3860.201 975.518 3868.1 971.495 3875.272 966.283 3881.539 960.016 3886.751 952.844 3890.774 944.945 3893.514 936.514 3894.9 927.759 3894.9 918.895 M 2910.648 918.895 2909.262 910.139 2907.668 904.814 2910.823 904.819 2910.823 791.835 2797.839 791.835 2797.839 904.819 2800.961 904.819 2799.399 910.139 2798.013 918.895 2798.013 927.759 2799.399 936.514 2802.139 944.945 2806.163 952.844 2811.374 960.016 2817.642 966.283 2824.814 971.495 2832.713 975.518 2841.143 978.259 2849.899 979.644 2858.762 979.644 2867.518 978.259 2875.949 975.518 2883.848 971.495 2891.02 966.283 2897.287 960.016 2902.499 952.844 2906.522 944.945 2909.262 936.514 2910.648 927.759 2910.648 918.895 M 1926.396 918.895 1925.01 910.139 1923.416 904.814 1926.571 904.819 1926.571 791.835 1813.587 791.835 1813.587 904.819 1816.709 904.819 1815.147 910.139 1813.761 918.895 1813.761 927.759 1815.147 936.514 1817.887 944.945 1821.911 952.844 1827.122 960.016 1833.39 966.283 1840.562 971.495 1848.461 975.518 1856.891 978.259 1865.647 979.644 1874.51 979.644 1883.266 978.259 1891.697 975.518 1899.596 971.495 1906.768 966.283 1913.035 960.016 1918.247 952.844 1922.27 944.945 1925.01 936.514 1926.396 927.759 1926.396 918.895 M 942.144 918.895 940.759 910.139 939.164 904.814 942.319 904.819 942.319 791.835 829.335 791.835 829.335 904.819 832.457 904.819 830.895 910.139 829.509 918.895 829.509 927.759 830.895 936.514 833.635 944.945 837.659 952.844 842.87 960.016 849.138 966.283 856.31 971.495 864.209 975.518 872.639 978.259 881.395 979.644 890.259 979.644 899.014 978.259 907.445 975.518 915.344 971.495 922.516 966.283 928.783 960.016 933.995 952.844 938.018 944.945 940.759 936.514 942.144 927.759 942.144 918.895 M 642.445 433.76 4082.016 433.76 4081.988 1337.921 642.394 1337.894 642.421 433.732" fill="none" stroke-width="25"/><path d="M 3838.583 848.327 3838.583 791.87 M 3782.126 848.327 3895.039 848.327 M 2854.331 848.327 2854.331 791.87 M 2797.874 848.327 2910.787 848.327 M 1870.079 848.327 1870.079 791.87 M 1813.622 848.327 1926.535 848.327 M 885.827 848.327 885.827 791.87 M 829.37 848.327 942.283 848.327" fill="none" stroke-width="20"/><use xlink:href="#exVGUtKl4NwoibYRodxR_pad-33" x="3838.583" y="923.327"/><use xlink:href="#exVGUtKl4NwoibYRodxR_pad-34" x="3838.583" y="848.327"/><use xlink:href="#exVGUtKl4NwoibYRodxR_pad-33" x="2854.331" y="923.327"/><use xlink:href="#exVGUtKl4NwoibYRodxR_pad-34" x="2854.331" y="848.327"/><use xlink:href="#exVGUtKl4NwoibYRodxR_pad-33" x="1870.079" y="923.327"/><use xlink:href="#exVGUtKl4NwoibYRodxR_pad-34" x="1870.079" y="848.327"/><use xlink:href="#exVGUtKl4NwoibYRodxR_pad-33" x="885.827" y="923.327"/><use xlink:href="#exVGUtKl4NwoibYRodxR_pad-34" x="885.827" y="848.327"/></g></svg>