<svg version="1.1" xmlns="http://www.w3.org/2000/svg" xmlns:xlink="http://www.w3.org/1999/xlink" stroke-linecap="round" stroke-linejoin="round" stroke-width="0" fill-rule="evenodd" clip-rule="evenodd" id="vhBBmr3WWdjOTCV7EZ5Z_top" viewBox="393.701 393.701 3937.008 984.252" width="3.9370079999999996in" height="0.9842519999999999in" class="w-100 h-100"><defs><style>.vhBBmr3WWdjOTCV7EZ5Z_fr4 {color: #666666;}
.vhBBmr3WWdjOTCV7EZ5Z_cu {color: #cccccc;}
.vhBBmr3WWdjOTCV7EZ5Z_cf {color: #cc9933;}
.vhBBmr3WWdjOTCV7EZ5Z_sm {color: #004200; opacity: 0.75;}
.vhBBmr3WWdjOTCV7EZ5Z_ss {color: #ffffff;}
.vhBBmr3WWdjOTCV7EZ5Z_sp {color: #999999;}
.vhBBmr3WWdjOTCV7EZ5Z_out {color: #000000;}</style><rect x="-22.335" y="-21.8685" width="44.67" height="43.737" rx="21.8685" ry="21.8685" id="A0J15aGBseONFM748F-C_pad-17"/><circle cx="0" cy="0" r="7.792" id="A0J15aGBseONFM748F-C_pad-19"/><circle cx="0" cy="0" r="16.3885" id="A0J15aGBseONFM748F-C_pad-20"/><circle cx="0" cy="0" r="6.2555" id="A0J15aGBseONFM748F-C_pad-21"/><circle cx="0" cy="0" r="6.2555" id="A0J15aGBseONFM748F-C_pad-22"/><circle cx="0" cy="0" r="6.219" id="A0J15aGBseONFM748F-C_pad-23"/><circle cx="0" cy="0" r="6.219" id="A0J15aGBseONFM748F-C_pad-24"/><circle cx="0" cy="0" r="6.987" id="A0J15aGBseONFM748F-C_pad-25"/><rect x="-7.792" y="-7.022" width="15.584" height="14.044" rx="7.022" ry="7.022" id="A0J15aGBseONFM748F-C_pad-26"/><rect x="-13.2425" y="-16.3815" width="26.485" height="32.763" rx="13.2425" ry="13.2425" id="A0J15aGBseONFM748F-C_pad-27"/><rect x="-3.9145" y="-3.1235" width="7.829" height="6.247" rx="3.1235" ry="3.1235" id="A0J15aGBseONFM748F-C_pad-28"/><circle cx="0" cy="0" r="7.0235" id="A0J15aGBseONFM748F-C_pad-29"/><rect x="-7.8285" y="-7.022" width="15.657" height="14.044" rx="7.022" ry="7.022" id="A0J15aGBseONFM748F-C_pad-30"/><rect x="-6.219" y="-7.022" width="12.438" height="14.044" rx="6.219" ry="6.219" id="A0J15aGBseONFM748F-C_pad-31"/><rect x="-6.219" y="-5.4605" width="12.438" height="10.921" rx="5.4605" ry="5.4605" id="A0J15aGBseONFM748F-C_pad-32"/><circle cx="0" cy="0" r="59.055" id="JRnGCDIHjlqDpLe9imz6_pad-35"/><rect x="-35.433" y="-39.37" width="70.866" height="78.74" id="JRnGCDIHjlqDpLe9imz6_pad-43"/><rect x="-66.5355" y="-28.937" width="133.071" height="57.874" id="JRnGCDIHjlqDpLe9imz6_pad-41"/><circle cx="0" cy="0" r="33.937" id="JRnGCDIHjlqDpLe9imz6_pad-39"/><rect x="-33.937" y="-33.937" width="67.874" height="67.874" id="JRnGCDIHjlqDpLe9imz6_pad-37"/><rect x="-31.496" y="-35.433" width="62.992" height="70.866" id="QxA6ABJ6KhP3tihWb0oH_pad-16"/><rect x="-62.5985" y="-25" width="125.197" height="50" id="QxA6ABJ6KhP3tihWb0oH_pad-18"/><circle cx="0" cy="0" r="30" id="QxA6ABJ6KhP3tihWb0oH_pad-33"/><rect x="-30" y="-30" width="60" height="60" id="QxA6ABJ6KhP3tihWb0oH_pad-34"/><circle cx="0" cy="0" r="12.5" id="fEyHFcN448TaFhynMEqB_pad-1"/><circle cx="0" cy="0" r="59.05" id="fEyHFcN448TaFhynMEqB_pad-2"/><g id="vhBBmr3WWdjOTCV7EZ5Z_top_silkscreen"><path d="M 3934.583 584.921 3742.583 584.921 3742.583 674.921 3934.583 674.921 3934.583 584.921 M 2950.331 584.921 2758.331 584.921 2758.331 674.921 2950.331 674.921 2950.331 584.921 M 1966.079 584.921 1774.079 584.921 1774.079 674.921 1966.079 674.921 1966.079 584.921 M 789.827 674.921 981.827 674.921 981.827 584.921 789.827 584.921 789.827 674.921" fill="none" stroke-width="9.843"/><use xlink:href="#A0J15aGBseONFM748F-C_pad-17" x="1435.911" y="1213.958"/><path d="M 1289.556 680.238 1289.556 790.524 M 1289.556 585.94 1289.556 593.673 M 1289.556 585.94 1387.61 585.94 1387.61 692.131 M 1387.61 778.696 1387.61 892.816 M 1289.556 880.274 1289.556 990.559 M 1387.61 978.666 1387.61 1092.852 M 1289.556 1080.374 1289.556 1185.85 M 1387.61 1178.832 1387.61 1185.85 1289.556 1185.85" fill="none" stroke-width="9.843"/><use xlink:href="#A0J15aGBseONFM748F-C_pad-19" x="3127.554" y="1033.347"/><path d="M 2960.63 1062.987 3044.988 1206.753 3110.616 1062.987 2960.63 1062.987"/><path d="M 3124.444 1200.262 3183.707 1200.262 3191.536 1198.712 3202.437 1194.038 3210.266 1189.363 3218.021 1183.117 3222.704 1176.87 3227.386 1167.522 3228.922 1159.702 3230.532 1148.803 3228.922 1139.433 3224.24 1128.512 3218.021 1122.265 3210.266 1116.04 3200.901 1111.344 3193.072 1108.243 3241.434 1062.987 3124.444 1062.987 3124.444 1200.262"/><path d="M 3222.704 1200.262 3366.251 1200.262 3345.985 1161.275 3317.89 1156.601 3308.525 1064.559 3281.966 1064.559 3272.601 1156.601 3244.58 1161.275 3222.704 1200.262"/><path d="M 3380.299 1142.556 3400.565 1142.556 3420.832 1062.987 3361.569 1062.987 3380.299 1142.556"/><path d="M 3537.821 1089.502 3469.193 1126.961 3537.821 1162.825 3528.456 1173.746 3519.091 1179.993 3506.653 1186.24 3494.142 1189.363 3480.095 1189.363 3467.657 1186.24 3455.146 1181.544 3444.244 1173.746 3434.879 1162.825 3428.66 1151.905 3425.514 1139.433 3423.978 1126.961 3425.514 1112.917 3428.66 1100.423 3436.416 1087.952 3445.781 1078.604 3456.682 1070.784 3469.193 1066.11 3480.095 1062.987 3494.142 1062.987 3506.653 1066.11 3520.701 1072.357 3537.821 1089.502"/><path d="M 3539.357 1064.559 3603.376 1209.633 3692.27 1062.987 3539.357 1064.559"/><use xlink:href="#A0J15aGBseONFM748F-C_pad-20" x="3390.396" y="1185.454"/><path d="M 3043.305 1033.347 3055.816 1033.347 3055.816 995.91 3043.305 995.91 3043.305 1033.347"/><use xlink:href="#A0J15aGBseONFM748F-C_pad-21" x="3049.561" y="1034.909"/><use xlink:href="#A0J15aGBseONFM748F-C_pad-22" x="3049.561" y="995.91"/><path d="M 3060.499 1033.347 3072.937 1033.347 3072.937 995.91 3060.499 995.91 3060.499 1033.347"/><use xlink:href="#A0J15aGBseONFM748F-C_pad-23" x="3066.718" y="1034.909"/><use xlink:href="#A0J15aGBseONFM748F-C_pad-24" x="3066.718" y="995.91"/><path d="M 3101.032 1033.347 3113.543 1033.347 3113.543 995.91 3101.032 995.91 3101.032 1033.347"/><use xlink:href="#A0J15aGBseONFM748F-C_pad-21" x="3107.287" y="1034.909"/><use xlink:href="#A0J15aGBseONFM748F-C_pad-22" x="3107.287" y="995.91"/><path d="M 3193.072 1031.797 3205.583 1031.797 3205.583 994.36 3193.072 994.36 3193.072 1031.797"/><use xlink:href="#A0J15aGBseONFM748F-C_pad-21" x="3199.328" y="1033.358"/><use xlink:href="#A0J15aGBseONFM748F-C_pad-21" x="3199.328" y="994.349"/><use xlink:href="#A0J15aGBseONFM748F-C_pad-25" x="3164.209" y="1015.404"/><use xlink:href="#A0J15aGBseONFM748F-C_pad-26" x="3163.404" y="998.258"/><use xlink:href="#A0J15aGBseONFM748F-C_pad-19" x="3573.708" y="1033.347"/><path d="M 3180.561 1041.145 3218.021 1041.145 3218.021 1028.673 3180.561 1028.673 3180.561 1041.145"/><use xlink:href="#A0J15aGBseONFM748F-C_pad-21" x="3182.134" y="1034.909"/><use xlink:href="#A0J15aGBseONFM748F-C_pad-23" x="3216.485" y="1034.909"/><path d="M 3230.532 1033.347 3242.97 1033.347 3242.97 995.91 3230.532 995.91 3230.532 1033.347"/><use xlink:href="#A0J15aGBseONFM748F-C_pad-23" x="3236.751" y="1034.909"/><use xlink:href="#A0J15aGBseONFM748F-C_pad-24" x="3236.751" y="995.91"/><path d="M 3285.112 1033.347 3297.623 1033.347 3297.623 1014.629 3285.112 1014.629 3285.112 1033.347"/><use xlink:href="#A0J15aGBseONFM748F-C_pad-21" x="3291.368" y="1034.909"/><path d="M 3236.751 1041.145 3271.065 1041.145 3271.065 1008.382 3236.751 1008.382 3236.751 1041.145"/><path d="M 3325.645 1033.347 3338.156 1033.347 3338.156 1019.303 3325.645 1019.303 3325.645 1033.347"/><use xlink:href="#A0J15aGBseONFM748F-C_pad-21" x="3331.901" y="1034.909"/><use xlink:href="#A0J15aGBseONFM748F-C_pad-27" x="3268.724" y="1024.763"/><path d="M 3531.602 1031.797 3544.04 1031.797 3544.04 994.36 3531.602 994.36 3531.602 1031.797"/><use xlink:href="#A0J15aGBseONFM748F-C_pad-23" x="3537.821" y="1033.358"/><use xlink:href="#A0J15aGBseONFM748F-C_pad-23" x="3537.821" y="994.349"/><path d="M 3519.091 1041.145 3556.551 1041.145 3556.551 1028.673 3519.091 1028.673 3519.091 1041.145"/><use xlink:href="#A0J15aGBseONFM748F-C_pad-21" x="3520.664" y="1034.909"/><use xlink:href="#A0J15aGBseONFM748F-C_pad-21" x="3554.978" y="1034.909"/><path d="M 3398.956 1033.347 3411.467 1033.347 3411.467 995.91 3398.956 995.91 3398.956 1033.347"/><use xlink:href="#A0J15aGBseONFM748F-C_pad-21" x="3405.211" y="1034.909"/><use xlink:href="#A0J15aGBseONFM748F-C_pad-22" x="3405.211" y="995.91"/><path d="M 3381.835 1033.347 3394.346 1033.347 3394.346 995.91 3381.835 995.91 3381.835 1033.347"/><use xlink:href="#A0J15aGBseONFM748F-C_pad-21" x="3388.091" y="1034.909"/><use xlink:href="#A0J15aGBseONFM748F-C_pad-22" x="3388.091" y="995.91"/><path d="M 3341.302 1033.347 3353.74 1033.347 3353.74 995.91 3341.302 995.91 3341.302 1033.347"/><use xlink:href="#A0J15aGBseONFM748F-C_pad-23" x="3347.521" y="1034.909"/><use xlink:href="#A0J15aGBseONFM748F-C_pad-24" x="3347.521" y="995.91"/><path d="M 3288.259 1017.752 3297.623 1017.752 3297.623 1008.382 3288.259 1008.382 3288.259 1017.752"/><use xlink:href="#A0J15aGBseONFM748F-C_pad-28" x="3367.02" y="1009.955"/><use xlink:href="#A0J15aGBseONFM748F-C_pad-29" x="3610.4" y="1015.404"/><use xlink:href="#A0J15aGBseONFM748F-C_pad-30" x="3609.595" y="998.258"/><path d="M 3575.281 1041.145 3612.741 1041.145 3612.741 1028.673 3575.281 1028.673 3575.281 1041.145"/><use xlink:href="#A0J15aGBseONFM748F-C_pad-23" x="3576.817" y="1034.909"/><use xlink:href="#A0J15aGBseONFM748F-C_pad-21" x="3611.168" y="1034.909"/><path d="M 3570.599 1022.426 3608.059 1022.426 3608.059 1011.505 3570.599 1011.505 3570.599 1022.426"/><use xlink:href="#A0J15aGBseONFM748F-C_pad-31" x="3572.135" y="1018.528"/><path d="M 3570.599 1002.157 3608.059 1002.157 3608.059 991.236 3570.599 991.236 3570.599 1002.157"/><path d="M 3066.718 1041.145 3110.397 1002.157 3108.86 989.663 3102.568 992.787 3066.718 1023.999 3066.718 1041.145"/><path d="M 3455.146 1033.347 3467.657 1033.347 3467.657 995.91 3455.146 995.91 3455.146 1033.347"/><use xlink:href="#A0J15aGBseONFM748F-C_pad-21" x="3461.401" y="1034.909"/><use xlink:href="#A0J15aGBseONFM748F-C_pad-22" x="3461.401" y="995.91"/><path d="M 3495.679 1033.347 3508.19 1033.347 3508.19 995.91 3495.679 995.91 3495.679 1033.347"/><use xlink:href="#A0J15aGBseONFM748F-C_pad-21" x="3501.934" y="1034.909"/><use xlink:href="#A0J15aGBseONFM748F-C_pad-22" x="3501.934" y="995.91"/><path d="M 3461.365 1041.145 3505.044 1002.157 3503.507 989.663 3497.288 992.787 3461.365 1023.999 3461.365 1041.145"/><path d="M 3129.127 1041.145 3166.514 1041.145 3166.514 1028.673 3129.127 1028.673 3129.127 1041.145"/><use xlink:href="#A0J15aGBseONFM748F-C_pad-23" x="3130.663" y="1034.909"/><use xlink:href="#A0J15aGBseONFM748F-C_pad-23" x="3164.977" y="1034.909"/><path d="M 3124.444 1022.426 3161.904 1022.426 3161.904 1011.505 3124.444 1011.505 3124.444 1022.426"/><use xlink:href="#A0J15aGBseONFM748F-C_pad-31" x="3125.981" y="1018.528"/><use xlink:href="#A0J15aGBseONFM748F-C_pad-32" x="3570.599" y="996.697"/><path d="M 3124.444 1002.157 3161.904 1002.157 3161.904 991.236 3124.444 991.236 3124.444 1002.157"/><use xlink:href="#A0J15aGBseONFM748F-C_pad-32" x="3124.444" y="996.697"/><use xlink:href="#A0J15aGBseONFM748F-C_pad-23" x="3160.295" y="997.472"/><use xlink:href="#A0J15aGBseONFM748F-C_pad-22" x="3274.174" y="995.91"/><path d="M 3249.262 1009.955 3269.529 991.236 3278.894 1000.584 3266.382 1013.078 3249.262 1009.955"/><path d="M 3310.061 989.663 3320.963 989.663 3331.937 997.483 3336.62 1008.382 3338.156 1020.876 3325.645 1022.426 3324.109 1009.955 3310.061 989.663"/><path d="M 3285.112 1020.876 3285.112 1005.281 3296.014 991.236 3313.207 989.663 3327.255 999.034 3319.426 1003.708 3313.207 1000.584 3303.842 1002.157 3285.112 1020.876"/><path d="M 3349.058 1041.145 3367.788 1023.999 3384.981 1039.594 3391.2 1030.224 3370.934 1009.955 3363.105 1009.955 3349.058 1023.999 3349.058 1041.145"/><path d="M 3119.762 1031.797 3132.2 1031.797 3132.2 1019.303 3119.762 1019.303 3119.762 1031.797"/><path d="M 3160.295 1013.078 3171.196 1013.078 3171.196 999.034 3160.295 999.034 3160.295 1013.078"/><path d="M 3405.248 1042.717 3442.635 1042.717 3442.635 1030.224 3405.248 1030.224 3405.248 1042.717"/><use xlink:href="#A0J15aGBseONFM748F-C_pad-24" x="3406.784" y="1036.471"/><use xlink:href="#A0J15aGBseONFM748F-C_pad-24" x="3441.098" y="1036.471"/><path d="M 3403.638 1022.426 3441.098 1022.426 3441.098 1009.955 3403.638 1009.955 3403.638 1022.426"/><use xlink:href="#A0J15aGBseONFM748F-C_pad-21" x="3405.211" y="1016.19"/><use xlink:href="#A0J15aGBseONFM748F-C_pad-23" x="3439.562" y="1016.19"/><path d="M 3405.248 1002.157 3442.635 1002.157 3442.635 989.663 3405.248 989.663 3405.248 1002.157"/><use xlink:href="#A0J15aGBseONFM748F-C_pad-24" x="3406.784" y="995.91"/><use xlink:href="#A0J15aGBseONFM748F-C_pad-24" x="3441.098" y="995.91"/><use xlink:href="#A0J15aGBseONFM748F-C_pad-21" x="3606.486" y="997.472"/><path d="M 3565.916 1031.797 3578.354 1031.797 3578.354 1019.303 3565.916 1019.303 3565.916 1031.797"/><path d="M 3606.449 1013.078 3617.424 1013.078 3617.424 999.034 3606.449 999.034 3606.449 1013.078"/><path d="M 3300.923 769.132 3327.441 769.132 3332.113 737.934 3350.843 730.13 3375.803 750.42 3396.071 730.13 3375.803 705.176 3383.611 688.007 3414.801 683.325 3414.801 655.249 3383.611 652.127 3375.803 633.416 3394.513 608.443 3375.803 589.732 3350.843 608.443 3339.921 603.779 3324.326 641.22 3335.248 650.566 3343.036 661.492 3343.036 673.978 3339.921 684.886 3330.556 692.689 3319.633 697.372 3307.153 697.372 3296.231 691.129 3290.001 681.764 3286.886 669.296 3290.001 656.809 3297.808 645.884 3305.596 641.22 3290.001 603.779 3279.078 608.443 3254.118 589.732 3235.408 608.443 3254.118 634.976 3246.311 652.127 3215.121 655.249 3215.121 683.325 3247.888 686.446 3254.118 705.176 3233.851 730.13 3254.118 748.86 3279.078 730.13 3297.808 736.373 3300.923 769.132"/><path d="M 3813.142 560.387 3826.042 560.387 3830.353 561.846 3831.812 563.272 3833.238 566.124 3833.238 569.009 3831.812 571.861 3830.353 573.32 3826.042 574.746 3813.142 574.746 3813.142 544.602 M 3823.19 560.387 3833.238 544.602 M 3856.86 544.602 3856.86 574.713 3842.501 554.65 3864.023 554.65 M 2829.603 560.387 2842.503 560.387 2846.814 561.846 2848.273 563.272 2849.699 566.124 2849.699 569.009 2848.273 571.861 2846.814 573.32 2842.503 574.746 2829.603 574.746 2829.603 544.602 M 2839.651 560.387 2849.699 544.602 M 2861.848 574.713 2877.599 574.713 2869.01 563.239 2873.322 563.239 2876.173 561.813 2877.599 560.387 2879.058 556.076 2879.058 553.224 2877.599 548.913 2874.747 546.028 2870.436 544.602 2866.125 544.602 2861.848 546.028 2860.422 547.487 2858.962 550.339 M 1845.351 560.387 1858.251 560.387 1862.562 561.846 1864.021 563.272 1865.447 566.124 1865.447 569.009 1864.021 571.861 1862.562 573.32 1858.251 574.746 1845.351 574.746 1845.351 544.602 M 1855.399 560.387 1865.447 544.602 M 1876.17 567.55 1876.17 568.976 1877.596 571.861 1879.022 573.287 1881.907 574.713 1887.644 574.713 1890.495 573.287 1891.921 571.861 1893.381 568.976 1893.381 566.124 1891.921 563.239 1889.07 558.961 1874.711 544.602 1894.807 544.602 M 867.549 560.387 880.449 560.387 884.76 561.846 886.219 563.272 887.645 566.124 887.645 569.009 886.219 571.861 884.76 573.32 880.449 574.746 867.549 574.746 867.549 544.602 M 877.597 560.387 887.645 544.602 M 896.909 568.976 899.794 570.435 904.105 574.713 904.105 544.602" fill="none" stroke-width="4.632"/><path d="M 1768.533 885.427 1768.533 888.279 1771.385 894.049 1774.237 896.901 1780.007 899.753 1791.481 899.753 1797.185 896.901 1800.037 894.049 1802.955 888.279 1802.955 882.575 1800.037 876.805 1794.333 868.249 1765.615 839.531 1805.807 839.531 M 2752.634 881.003 2784.138 881.003 2766.96 858.055 2775.582 858.055 2781.286 855.203 2784.138 852.351 2787.056 843.729 2787.056 838.026 2784.138 829.404 2778.434 823.633 2769.812 820.782 2761.19 820.782 2752.634 823.633 2749.782 826.552 2746.864 832.255 M 3758.603 820.782 3758.603 881.003 3729.885 840.878 3772.929 840.878" fill="none" stroke-width="9.264"/><path d="M 3012.611 916.668 3014.513 914.767 3016.458 916.668 3014.513 918.613 3012.611 916.668 M 3014.513 903.271 3014.513 876.476 M 3028.81 903.271 3028.81 876.476 M 3028.81 895.621 3034.558 901.369 3038.404 903.271 3044.108 903.271 3047.955 901.369 3049.856 895.621 3049.856 876.476 M 3083.254 897.523 3081.353 901.369 3075.605 903.271 3069.857 903.271 3064.109 901.369 3062.208 897.523 3064.109 893.72 3067.956 891.775 3077.506 889.873 3081.353 887.972 3083.254 884.125 3083.254 882.224 3081.353 878.421 3075.605 876.476 3069.857 876.476 3064.109 878.421 3062.208 882.224 M 3101.354 916.668 3101.354 884.125 3103.255 878.421 3107.102 876.476 3110.904 876.476 M 3095.606 903.271 3109.003 903.271 M 3123.256 903.271 3123.256 876.476 M 3123.256 891.775 3125.201 897.523 3129.004 901.369 3132.85 903.271 3138.599 903.271 M 3150.95 903.271 3150.95 884.125 3152.851 878.421 3156.698 876.476 3162.446 876.476 3166.249 878.421 3171.997 884.125 M 3171.997 903.271 3171.997 876.476 M 3184.348 903.271 3184.348 876.476 M 3184.348 895.621 3190.096 901.369 3193.943 903.271 3199.647 903.271 3203.493 901.369 3205.395 895.621 3205.395 876.476 M 3205.395 895.621 3211.143 901.369 3214.989 903.271 3220.693 903.271 3224.54 901.369 3226.485 895.621 3226.485 876.476 M 3238.837 891.775 3261.785 891.775 3261.785 895.621 3259.883 899.468 3257.982 901.369 3254.135 903.271 3248.387 903.271 3244.585 901.369 3240.738 897.523 3238.837 891.775 3238.837 887.972 3240.738 882.224 3244.585 878.421 3248.387 876.476 3254.135 876.476 3257.982 878.421 3261.785 882.224 M 3274.136 903.271 3274.136 876.476 M 3274.136 895.621 3279.884 901.369 3283.731 903.271 3289.435 903.271 3293.282 901.369 3295.183 895.621 3295.183 876.476 M 3313.282 916.668 3313.282 884.125 3315.183 878.421 3319.03 876.476 3322.833 876.476 M 3307.534 903.271 3320.932 903.271 M 3356.231 897.523 3354.33 901.369 3348.582 903.271 3342.833 903.271 3337.085 901.369 3335.184 897.523 3337.085 893.72 3340.932 891.775 3350.483 889.873 3354.33 887.972 3356.231 884.125 3356.231 882.224 3354.33 878.421 3348.582 876.476 3342.833 876.476 3337.085 878.421 3335.184 882.224 M 3370.484 880.323 3368.582 878.377 3370.484 876.476 3372.429 878.377 3370.484 880.323 M 3407.728 903.271 3407.728 876.476 M 3407.728 897.523 3403.926 901.369 3400.079 903.271 3394.375 903.271 3390.528 901.369 3386.726 897.523 3384.78 891.775 3384.78 887.972 3386.726 882.224 3390.528 878.421 3394.375 876.476 3400.079 876.476 3403.926 878.421 3407.728 882.224 M 3420.08 903.271 3420.08 876.476 M 3420.08 891.775 3422.025 897.523 3425.828 901.369 3429.674 903.271 3435.423 903.271 M 3453.522 916.668 3453.522 884.125 3455.423 878.421 3459.27 876.476 3463.073 876.476 M 3447.774 903.271 3461.171 903.271 M 3475.424 916.668 3477.325 914.767 3479.271 916.668 3477.325 918.613 3475.424 916.668 M 3477.325 903.271 3477.325 876.476 M 3514.614 897.523 3510.767 901.369 3506.921 903.271 3501.217 903.271 3497.37 901.369 3493.568 897.523 3491.622 891.775 3491.622 887.972 3493.568 882.224 3497.37 878.421 3501.217 876.476 3506.921 876.476 3510.767 878.421 3514.614 882.224 M 3549.914 903.271 3549.914 876.476 M 3549.914 897.523 3546.111 901.369 3542.264 903.271 3536.56 903.271 3532.714 901.369 3528.911 897.523 3526.966 891.775 3526.966 887.972 3528.911 882.224 3532.714 878.421 3536.56 876.476 3542.264 876.476 3546.111 878.421 3549.914 882.224 M 3564.166 880.323 3562.265 878.377 3564.166 876.476 3566.112 878.377 3564.166 880.323 M 3601.455 897.523 3597.608 901.369 3593.762 903.271 3588.058 903.271 3584.211 901.369 3580.409 897.523 3578.463 891.775 3578.463 887.972 3580.409 882.224 3584.211 878.421 3588.058 876.476 3593.762 876.476 3597.608 878.421 3601.455 882.224 M 3636.799 897.523 3632.952 901.369 3629.105 903.271 3623.401 903.271 3619.555 901.369 3615.752 897.523 3613.807 891.775 3613.807 887.972 3615.752 882.224 3619.555 878.421 3623.401 876.476 3629.105 876.476 3632.952 878.421 3636.799 882.224" fill="none" stroke-width="6.176"/><path d="M 2041.176 526.856 2041.176 1249.516 1696.559 768.008 2213.086 768.008" fill="none" stroke-width="111.163"/><path d="M 796.863 869.311 802.633 872.23 811.255 880.785 811.255 820.564" fill="none" stroke-width="9.264"/><path d="M 2177.808 1250.312 2177.808 526.856 2590.871 526.856" fill="none" stroke-width="111.163"/><path d="M 2266.093 1085.986 2292.888 1097.482 2266.093 1108.933 M 2260.389 1121.285 2258.444 1125.132 2252.74 1130.88 2292.888 1130.88 M 2289.041 1145.132 2290.986 1143.231 2292.888 1145.132 2290.986 1147.078 2289.041 1145.132 M 2252.74 1170.925 2254.641 1165.177 2260.389 1161.33 2269.94 1159.429 2275.688 1159.429 2285.238 1161.33 2290.986 1165.177 2292.888 1170.925 2292.888 1174.728 2290.986 1180.476 2285.238 1184.278 2275.688 1186.224 2269.94 1186.224 2260.389 1184.278 2254.641 1180.476 2252.74 1174.728 2252.74 1170.925 M 2260.389 1184.278 2285.238 1161.33" fill="none" stroke-width="6.176"/><path d="M 2365.011 750.811 2278.038 750.811 2278.038 610.139 2365.011 610.139 M 2278.038 683.802 2331.584 683.802 M 2408.24 750.811 2408.24 610.139 2455.131 610.139 2475.249 616.948 2488.713 630.257 2495.367 643.721 2502.022 663.684 2502.022 697.266 2495.367 717.384 2488.713 730.693 2475.249 744.156 2455.131 750.811 2408.24 750.811" fill="none" stroke-width="21.615"/><path d="M 3167.755 537.897 3166.329 540.749 3163.444 543.634 3160.592 545.06 3154.855 545.06 3151.97 543.634 3149.118 540.749 3147.659 537.897 3146.233 533.586 3146.233 526.39 3147.659 522.112 3149.118 519.227 3151.97 516.375 3154.855 514.916 3160.592 514.916 3163.444 516.375 3166.329 519.227 3167.755 522.112 M 3198.541 537.897 3197.115 540.749 3194.23 543.634 3191.378 545.06 3185.641 545.06 3182.756 543.634 3179.904 540.749 3178.445 537.897 3177.019 533.586 3177.019 526.39 3178.445 522.112 3179.904 519.227 3182.756 516.375 3185.641 514.916 3191.378 514.916 3194.23 516.375 3197.115 519.227 3198.541 522.112 M 3236.965 545.06 3236.965 514.916 3249.898 514.916 3254.209 516.375 3255.635 517.801 3257.061 520.653 3257.061 524.964 3255.635 527.849 3254.209 529.275 3249.898 530.701 3254.209 532.16 3255.635 533.586 3257.061 536.438 3257.061 539.323 3255.635 542.175 3254.209 543.634 3249.898 545.06 3236.965 545.06 M 3236.965 530.701 3249.898 530.701 M 3266.324 545.06 3277.798 530.701 3277.798 514.916 M 3289.272 545.06 3277.798 530.701 M 3298.536 529.971 3315.117 529.971 M 3344.476 540.749 3341.624 543.634 3337.313 545.06 3331.576 545.06 3327.265 543.634 3324.38 540.749 3324.38 537.897 3325.839 535.012 3327.265 533.586 3330.117 532.16 3338.739 529.275 3341.624 527.849 3343.05 526.39 3344.476 523.538 3344.476 519.227 3341.624 516.375 3337.313 514.916 3331.576 514.916 3327.265 516.375 3324.38 519.227 M 3376.721 514.916 3365.214 545.06 3353.74 514.916 M 3358.051 524.964 3372.41 524.964 M 3429.504 514.916 3429.504 545.027 3415.145 524.964 3436.667 524.964 M 3447.356 517.801 3445.93 516.342 3447.356 514.916 3448.816 516.342 3447.356 517.801 M 3466.701 545.027 3462.39 543.601 3459.505 539.29 3458.079 532.127 3458.079 527.816 3459.505 520.653 3462.39 516.342 3466.701 514.916 3469.553 514.916 3473.864 516.342 3476.716 520.653 3478.175 527.816 3478.175 532.127 3476.716 539.29 3473.864 543.601 3469.553 545.027 3466.701 545.027 M 3476.716 539.29 3459.505 520.653" fill="none" stroke-width="4.632"/><path d="M 1519.675 754.177 1519.675 757.029 1522.527 762.799 1525.378 765.651 1531.149 768.503 1542.623 768.503 1548.326 765.651 1551.178 762.799 1554.097 757.029 1554.097 751.325 1551.178 745.555 1545.474 737 1516.756 708.282 1556.948 708.282 M 1524.208 1144.643 1557.37 1144.643 M 1540.756 1066.542 1540.756 1014.876 M 1514.956 1040.675 1566.622 1040.675 M 1544.048 906.659 1544.048 966.881 1515.33 926.755 1558.374 926.755" fill="none" stroke-width="9.264"/><path d="M 1524.914 866.35 1551.167 866.35 1536.852 847.226 1544.037 847.226 1548.79 844.85 1551.167 842.473 1553.599 835.288 1553.599 830.535 1551.167 823.35 1546.414 818.541 1539.228 816.165 1532.043 816.165 1524.914 818.541 1522.537 820.973 1520.105 825.726" fill="none" stroke-width="7.72"/><path d="M 1525.718 650.781 1531.489 653.699 1540.111 662.255 1540.111 602.033" fill="none" stroke-width="9.264"/></g><g id="vhBBmr3WWdjOTCV7EZ5Z_top_soldermask"><use xlink:href="#JRnGCDIHjlqDpLe9imz6_pad-35" x="511.811" y="511.811"/><use xlink:href="#JRnGCDIHjlqDpLe9imz6_pad-35" x="511.811" y="1259.843"/><use xlink:href="#JRnGCDIHjlqDpLe9imz6_pad-35" x="4212.598" y="1259.843"/><use xlink:href="#JRnGCDIHjlqDpLe9imz6_pad-35" x="4212.598" y="511.811"/><use xlink:href="#JRnGCDIHjlqDpLe9imz6_pad-43" x="3893.701" y="629.921"/><use xlink:href="#JRnGCDIHjlqDpLe9imz6_pad-43" x="3783.465" y="629.921"/><use xlink:href="#JRnGCDIHjlqDpLe9imz6_pad-43" x="2909.449" y="629.921"/><use xlink:href="#JRnGCDIHjlqDpLe9imz6_pad-43" x="2799.213" y="629.921"/><use xlink:href="#JRnGCDIHjlqDpLe9imz6_pad-43" x="1925.197" y="629.921"/><use xlink:href="#JRnGCDIHjlqDpLe9imz6_pad-43" x="1814.961" y="629.921"/><use xlink:href="#JRnGCDIHjlqDpLe9imz6_pad-43" x="830.709" y="629.921"/><use xlink:href="#JRnGCDIHjlqDpLe9imz6_pad-43" x="940.945" y="629.921"/><use xlink:href="#JRnGCDIHjlqDpLe9imz6_pad-41" x="1275.984" y="635.827"/><use xlink:href="#JRnGCDIHjlqDpLe9imz6_pad-41" x="1401.181" y="735.827"/><use xlink:href="#JRnGCDIHjlqDpLe9imz6_pad-41" x="1275.984" y="835.827"/><use xlink:href="#JRnGCDIHjlqDpLe9imz6_pad-41" x="1401.181" y="935.827"/><use xlink:href="#JRnGCDIHjlqDpLe9imz6_pad-41" x="1275.984" y="1035.827"/><use xlink:href="#JRnGCDIHjlqDpLe9imz6_pad-41" x="1401.181" y="1135.827"/><use xlink:href="#JRnGCDIHjlqDpLe9imz6_pad-39" x="3838.583" y="923.327"/><use xlink:href="#JRnGCDIHjlqDpLe9imz6_pad-37" x="3838.583" y="848.327"/><use xlink:href="#JRnGCDIHjlqDpLe9imz6_pad-39" x="2854.331" y="923.327"/><use xlink:href="#JRnGCDIHjlqDpLe9imz6_pad-37" x="2854.331" y="848.327"/><use xlink:href="#JRnGCDIHjlqDpLe9imz6_pad-39" x="1870.079" y="923.327"/><use xlink:href="#JRnGCDIHjlqDpLe9imz6_pad-37" x="1870.079" y="848.327"/><use xlink:href="#JRnGCDIHjlqDpLe9imz6_pad-39" x="885.827" y="923.327"/><use xlink:href="#JRnGCDIHjlqDpLe9imz6_pad-37" x="885.827" y="848.327"/></g><g id="vhBBmr3WWdjOTCV7EZ5Z_top_copper"><path d="M 3838.583 923.327 3882.824 923.327 3912.45 893.701 3912.45 648.671 3893.701 629.921 M 2909.449 629.921 2924.95 629.921 2924.95 893.701 2895.324 923.327 2854.331 923.327 M 1870.079 923.327 1895.325 923.327 1925.197 893.455 1925.197 629.921 M 885.827 923.327 842.076 923.327 812.45 893.701 812.45 629.921 830.709 629.921 M 1401.181 935.827 1479.134 935.827 1602.362 1059.055 3401.575 1059.055 3783.465 677.165 3783.465 629.921 M 1275.984 835.827 1446.063 835.827 1637.795 1027.559 2456.693 1027.559 2799.213 685.039 2799.213 629.921 M 1401.181 735.827 1638.189 735.827 1744.094 629.921 1814.961 629.921 M 1275.984 635.827 946.85 635.827 940.945 629.921" fill="none" stroke-width="12"/><path d="M 644.94 1313.025 4079.474 1313.025 M 644.94 1288.156 4079.474 1288.156 M 644.94 1263.287 4079.474 1263.287 M 644.94 1238.419 4079.474 1238.419 M 644.94 1213.55 4079.474 1213.55 M 644.94 1188.681 4079.474 1188.681 M 644.94 1163.812 1309.573 1163.812 M 1492.774 1163.812 4079.474 1163.812 M 644.94 1138.944 1309.573 1138.944 M 1492.774 1138.944 4079.474 1138.944 M 644.94 1114.075 1309.573 1114.075 M 1492.774 1114.075 4079.474 1114.075 M 644.94 1089.206 1309.573 1089.206 M 1492.774 1089.206 1587.748 1089.206 M 3416.167 1089.206 4079.474 1089.206 M 644.94 1064.337 1184.409 1064.337 M 1367.575 1064.337 1559.185 1064.337 M 3444.731 1064.337 4079.474 1064.337 M 644.94 1039.469 1184.409 1039.469 M 1367.575 1039.469 1534.316 1039.469 M 3469.598 1039.469 4079.474 1039.469 M 644.94 1014.6 1184.409 1014.6 M 1367.575 1014.6 1509.449 1014.6 M 2518.093 1014.6 3397.567 1014.6 M 3494.467 1014.6 4079.474 1014.6 M 644.94 989.731 1184.409 989.731 M 1367.575 989.731 1484.581 989.731 M 1648.404 989.731 2446.062 989.731 M 2542.962 989.731 3422.434 989.731 M 3519.335 989.731 4079.474 989.731 M 644.94 964.862 845.054 964.862 M 926.63 964.862 1309.573 964.862 M 1623.537 964.862 1829.285 964.862 M 1910.861 964.862 2470.93 964.862 M 2567.829 964.862 2813.552 964.862 M 2895.129 964.862 3447.303 964.862 M 3544.202 964.862 3797.783 964.862 M 3879.361 964.862 4079.474 964.862 M 644.94 939.993 810.281 939.993 M 942.311 939.993 1309.573 939.993 M 1598.669 939.993 1813.604 939.993 M 1927.117 939.993 2495.798 939.993 M 2592.697 939.993 2797.87 939.993 M 2927.101 939.993 3472.171 939.993 M 3569.07 939.993 3782.102 939.993 M 3914.598 939.993 4079.474 939.993 M 644.94 915.125 785.521 915.125 M 944.214 915.125 1309.573 915.125 M 1573.802 915.125 1811.701 915.125 M 1951.913 915.125 2520.665 915.125 M 2617.564 915.125 2795.933 915.125 M 2951.862 915.125 3497.038 915.125 M 3593.974 915.125 3780.201 915.125 M 3939.395 915.125 4079.474 915.125 M 644.94 890.256 777.448 890.256 M 944.823 890.256 1309.573 890.256 M 1548.933 890.256 1811.092 890.256 M 1960.202 890.256 2545.533 890.256 M 2642.433 890.256 2795.323 890.256 M 2959.936 890.256 3521.906 890.256 M 3618.841 890.256 3779.591 890.256 M 3947.433 890.256 4079.474 890.256 M 644.94 865.387 777.448 865.387 M 944.823 865.387 1184.409 865.387 M 1524.066 865.387 1811.092 865.387 M 1960.202 865.387 2570.4 865.387 M 2667.301 865.387 2795.323 865.387 M 2959.936 865.387 3546.81 865.387 M 3643.709 865.387 3779.591 865.387 M 3947.433 865.387 4079.474 865.387 M 644.94 840.518 777.448 840.518 M 944.823 840.518 1184.409 840.518 M 1499.198 840.518 1811.092 840.518 M 1960.202 840.518 2595.269 840.518 M 2692.168 840.518 2795.323 840.518 M 2959.936 840.518 3571.677 840.518 M 3668.576 840.518 3779.591 840.518 M 3947.433 840.518 4079.474 840.518 M 644.94 815.65 777.448 815.65 M 944.823 815.65 1184.409 815.65 M 1474.331 815.65 1811.092 815.65 M 1960.202 815.65 2620.136 815.65 M 2717.035 815.65 2795.323 815.65 M 2959.936 815.65 3596.545 815.65 M 3693.445 815.65 3779.591 815.65 M 3947.433 815.65 4079.474 815.65 M 644.94 790.781 777.448 790.781 M 847.433 790.781 1184.409 790.781 M 1367.575 790.781 1890.217 790.781 M 1960.202 790.781 2645.004 790.781 M 2741.94 790.781 2889.949 790.781 M 2959.936 790.781 3621.412 790.781 M 3718.312 790.781 3877.446 790.781 M 3947.433 790.781 4079.474 790.781 M 644.94 765.912 777.448 765.912 M 847.433 765.912 1309.573 765.912 M 1652.962 765.912 1890.217 765.912 M 1960.202 765.912 2669.871 765.912 M 2766.807 765.912 2889.949 765.912 M 2959.936 765.912 3646.281 765.912 M 3743.18 765.912 3877.446 765.912 M 3947.433 765.912 4079.474 765.912 M 644.94 741.043 777.448 741.043 M 847.433 741.043 1309.573 741.043 M 1681.419 741.043 1890.217 741.043 M 1960.202 741.043 2694.776 741.043 M 2791.675 741.043 2889.949 741.043 M 2959.936 741.043 3671.148 741.043 M 3768.047 741.043 3877.446 741.043 M 3947.433 741.043 4079.474 741.043 M 644.94 716.175 777.448 716.175 M 847.433 716.175 1309.573 716.175 M 1706.286 716.175 1890.217 716.175 M 1960.202 716.175 2719.643 716.175 M 2816.542 716.175 2889.949 716.175 M 2959.936 716.175 3696.016 716.175 M 3792.915 716.175 3877.446 716.175 M 3947.433 716.175 4079.474 716.175 M 644.94 691.306 770.235 691.306 M 1001.449 691.306 1309.573 691.306 M 1492.774 691.306 1634.255 691.306 M 1731.154 691.306 1754.466 691.306 M 1985.68 691.306 2738.734 691.306 M 2969.948 691.306 3720.883 691.306 M 3954.178 691.306 4079.474 691.306 M 644.94 666.437 770.235 666.437 M 1367.575 666.437 1659.122 666.437 M 1985.68 666.437 2738.734 666.437 M 2969.948 666.437 3722.965 666.437 M 3954.178 666.437 4079.474 666.437 M 644.94 641.568 770.235 641.568 M 1367.575 641.568 1683.99 641.568 M 1985.68 641.568 2738.734 641.568 M 2969.948 641.568 3722.965 641.568 M 3954.178 641.568 4079.474 641.568 M 644.94 616.699 770.235 616.699 M 1367.575 616.699 1708.857 616.699 M 1985.68 616.699 2738.734 616.699 M 2969.948 616.699 3722.965 616.699 M 3954.178 616.699 4079.474 616.699 M 644.94 591.831 770.235 591.831 M 1001.449 591.831 1184.409 591.831 M 1367.575 591.831 1754.466 591.831 M 1985.68 591.831 2738.734 591.831 M 2969.948 591.831 3722.965 591.831 M 3954.178 591.831 4079.474 591.831 M 644.94 566.962 4079.474 566.962 M 644.94 542.093 4079.474 542.093 M 644.94 517.224 4079.474 517.224 M 644.94 492.356 4079.474 492.356 M 644.94 467.487 4079.474 467.487 M 644.94 442.618 4079.474 442.618 M 1196.08 687.319 1312.093 687.319 1312.091 784.344 1186.894 784.335 1186.894 887.319 1312.093 887.319 1312.091 984.344 1186.894 984.335 1186.894 1087.319 1312.093 1087.319 1312.091 1187.319 1490.272 1187.319 1490.272 1084.335 1365.072 1084.335 1365.075 987.31 1484.657 987.319 1581.26 1083.762 1585.385 1086.76 1589.928 1089.073 1594.777 1090.65 1599.812 1091.448 1666.667 1091.547 3404.125 1091.448 3409.16 1090.65 3414.009 1089.073 3418.552 1086.76 3422.677 1083.762 3470.02 1036.56 3808.172 698.268 3811.169 694.143 3812.42 691.907 3879.958 691.846 3879.958 791.812 3782.091 791.835 3782.091 904.819 3785.213 904.819 3783.651 910.139 3782.265 918.895 3782.265 927.759 3783.651 936.514 3786.391 944.945 3790.415 952.844 3795.626 960.016 3801.894 966.283 3809.066 971.495 3816.965 975.518 3825.395 978.259 3834.151 979.644 3843.014 979.644 3851.77 978.259 3860.201 975.518 3868.1 971.495 3875.272 966.283 3881.539 960.016 3884.797 955.769 3890.409 954.921 3895.259 953.345 3899.802 951.031 3903.927 948.034 3935.425 916.676 3938.738 912.799 3941.402 908.451 3943.352 903.741 3944.542 898.783 3944.942 893.701 3944.942 691.852 3951.689 691.846 3951.689 567.996 3725.476 567.996 3725.476 689.199 3388.126 1026.552 2503.644 1026.563 2823.92 706.142 2826.917 702.017 2829.231 697.474 2830.808 692.614 2833.088 691.846 2892.476 691.846 2892.45 791.835 2797.839 791.835 2797.839 904.819 2800.961 904.819 2799.399 910.139 2798.013 918.895 2798.013 927.759 2799.399 936.514 2802.139 944.945 2806.163 952.844 2811.374 960.016 2817.642 966.283 2824.814 971.495 2832.713 975.518 2841.143 978.259 2849.899 979.644 2858.762 979.644 2867.518 978.259 2875.949 975.518 2883.848 971.495 2891.02 966.283 2897.287 960.016 2900.833 955.336 2905.365 954.228 2910.075 952.278 2914.423 949.614 2918.306 946.295 2949.657 914.803 2952.655 910.678 2954.969 906.135 2956.545 901.286 2957.343 896.251 2957.442 829.396 2957.442 691.852 2967.437 691.846 2967.437 567.996 2741.224 567.996 2741.224 691.846 2746.428 691.846 2443.255 995.046 1651.273 995.067 1467.165 811.119 1463.041 808.122 1458.497 805.808 1453.648 804.232 1448.613 803.434 1381.759 803.335 1365.072 803.335 1365.075 787.31 1490.272 787.319 1490.272 768.336 1640.739 768.219 1645.774 767.421 1650.623 765.845 1655.167 763.531 1659.291 760.534 1706.635 713.332 1756.951 663.016 1756.972 691.846 1892.723 691.846 1892.705 791.866 1813.587 791.835 1813.587 904.819 1816.709 904.819 1815.147 910.139 1813.761 918.895 1813.761 927.759 1815.147 936.514 1817.887 944.945 1821.911 952.844 1827.122 960.016 1833.39 966.283 1840.562 971.495 1848.461 975.518 1856.891 978.259 1865.647 979.644 1874.51 979.644 1883.266 978.259 1891.697 975.518 1899.596 971.495 1906.768 966.283 1913.035 960.016 1918.247 952.844 1922.27 944.945 1923.801 940.801 1949.904 914.558 1952.902 910.433 1955.215 905.89 1956.791 901.041 1957.589 896.005 1957.689 829.151 1957.689 691.822 1983.185 691.846 1983.185 567.996 1756.972 567.996 1756.972 597.457 1741.545 597.529 1736.509 598.327 1731.66 599.903 1727.117 602.217 1722.992 605.214 1675.648 652.416 1624.723 703.341 1490.239 703.335 1490.272 684.335 1365.072 684.335 1365.075 584.335 1186.894 584.335 1186.894 603.318 998.923 603.335 998.933 567.996 772.72 567.996 772.72 691.846 779.933 691.846 780.058 896.251 780.856 901.286 782.432 906.135 784.745 910.678 787.743 914.803 819.101 946.302 822.978 949.613 827.325 952.277 832.035 954.228 836.993 955.419 839.537 955.719 842.87 960.016 849.138 966.283 856.31 971.495 864.209 975.518 872.639 978.259 881.395 979.644 890.259 979.644 899.014 978.259 907.445 975.518 915.344 971.495 922.516 966.283 928.783 960.016 933.995 952.844 938.018 944.945 940.759 936.514 942.144 927.759 942.144 918.895 940.759 910.139 939.164 904.814 942.319 904.819 942.319 791.835 844.937 791.835 844.942 691.852 998.933 691.846 998.933 668.343 1186.879 668.319 1186.894 687.319 1196.08 687.319 M 642.445 433.76 4082.016 433.76 4081.988 1337.921 642.394 1337.894 642.421 433.732" fill="none" stroke-width="25"/><path d="M 1401.181 1187.283 1401.181 1084.37 M 1312.126 1135.827 1490.236 1135.827 M 3838.583 848.327 3838.583 791.87 M 3782.126 848.327 3838.583 848.327 M 2854.331 848.327 2854.331 791.87 M 2797.874 848.327 2854.331 848.327 M 1870.079 848.327 1870.079 791.87 M 1813.622 848.327 1870.079 848.327 M 885.827 848.327 885.827 791.87 M 885.827 848.327 942.283 848.327" fill="none" stroke-width="20"/><use xlink:href="#QxA6ABJ6KhP3tihWb0oH_pad-16" x="3893.701" y="629.921"/><use xlink:href="#QxA6ABJ6KhP3tihWb0oH_pad-16" x="3783.465" y="629.921"/><use xlink:href="#QxA6ABJ6KhP3tihWb0oH_pad-16" x="2909.449" y="629.921"/><use xlink:href="#QxA6ABJ6KhP3tihWb0oH_pad-16" x="2799.213" y="629.921"/><use xlink:href="#QxA6ABJ6KhP3tihWb0oH_pad-16" x="1925.197" y="629.921"/><use xlink:href="#QxA6ABJ6KhP3tihWb0oH_pad-16" x="1814.961" y="629.921"/><use xlink:href="#QxA6ABJ6KhP3tihWb0oH_pad-16" x="830.709" y="629.921"/><use xlink:href="#QxA6ABJ6KhP3tihWb0oH_pad-16" x="940.945" y="629.921"/><use xlink:href="#QxA6ABJ6KhP3tihWb0oH_pad-18" x="1275.984" y="635.827"/><use xlink:href="#QxA6ABJ6KhP3tihWb0oH_pad-18" x="1401.181" y="735.827"/><use xlink:href="#QxA6ABJ6KhP3tihWb0oH_pad-18" x="1275.984" y="835.827"/><use xlink:href="#QxA6ABJ6KhP3tihWb0oH_pad-18" x="1401.181" y="935.827"/><use xlink:href="#QxA6ABJ6KhP3tihWb0oH_pad-18" x="1275.984" y="1035.827"/><use xlink:href="#QxA6ABJ6KhP3tihWb0oH_pad-18" x="1401.181" y="1135.827"/><use xlink:href="#QxA6ABJ6KhP3tihWb0oH_pad-33" x="3838.583" y="923.327"/><use xlink:href="#QxA6ABJ6KhP3tihWb0oH_pad-34" x="3838.583" y="848.327"/><use xlink:href="#QxA6ABJ6KhP3tihWb0oH_pad-33" x="2854.331" y="923.327"/><use xlink:href="#QxA6ABJ6KhP3tihWb0oH_pad-34" x="2854.331" y="848.327"/><use xlink:href="#QxA6ABJ6KhP3tihWb0oH_pad-33" x="1870.079" y="923.327"/><use xlink:href="#QxA6ABJ6KhP3tihWb0oH_pad-34" x="1870.079" y="848.327"/><use xlink:href="#QxA6ABJ6KhP3tihWb0oH_pad-33" x="885.827" y="923.327"/><use xlink:href="#QxA6ABJ6KhP3tihWb0oH_pad-34" x="885.827" y="848.327"/></g><g id="vhBBmr3WWdjOTCV7EZ5Z_top_drill1"><use xlink:href="#fEyHFcN448TaFhynMEqB_pad-1" x="3838.6" y="923.3"/><use xlink:href="#fEyHFcN448TaFhynMEqB_pad-1" x="3838.6" y="848.3"/><use xlink:href="#fEyHFcN448TaFhynMEqB_pad-1" x="2854.3" y="848.3"/><use xlink:href="#fEyHFcN448TaFhynMEqB_pad-1" x="2854.3" y="923.3"/><use xlink:href="#fEyHFcN448TaFhynMEqB_pad-1" x="1870.1" y="923.3"/><use xlink:href="#fEyHFcN448TaFhynMEqB_pad-1" x="1870.1" y="848.3"/><use xlink:href="#fEyHFcN448TaFhynMEqB_pad-1" x="885.8" y="848.3"/><use xlink:href="#fEyHFcN448TaFhynMEqB_pad-1" x="885.8" y="923.3"/><use xlink:href="#fEyHFcN448TaFhynMEqB_pad-2" x="511.8" y="511.8"/><use xlink:href="#fEyHFcN448TaFhynMEqB_pad-2" x="511.8" y="1259.8"/><use xlink:href="#fEyHFcN448TaFhynMEqB_pad-2" x="4212.6" y="1259.8"/><use xlink:href="#fEyHFcN448TaFhynMEqB_pad-2" x="4212.6" y="511.8"/></g><clipPath id="vhBBmr3WWdjOTCV7EZ5Z_top_outline"><path d="M 393.701 393.701 4330.709 393.701 4330.709 1377.953 393.701 1377.953 393.701 393.701" fill="none" stroke-width="5.512"/></clipPath><mask id="vhBBmr3WWdjOTCV7EZ5Z_top_mech-mask"><g fill="#000" stroke="#000"><rect x="393.701" y="393.701" width="3937.008" height="984.252" fill="#fff"/><use xlink:href="#vhBBmr3WWdjOTCV7EZ5Z_top_drill1"/></g></mask><mask id="vhBBmr3WWdjOTCV7EZ5Z_top_cf-mask"><g fill="#fff" stroke="#fff"><use xlink:href="#vhBBmr3WWdjOTCV7EZ5Z_top_soldermask"/></g></mask><mask id="vhBBmr3WWdjOTCV7EZ5Z_top_sm-mask"><g fill="#000" stroke="#000"><rect x="393.701" y="393.701" width="3937.008" height="984.252" fill="#fff"/><use xlink:href="#vhBBmr3WWdjOTCV7EZ5Z_top_soldermask"/></g></mask></defs><g transform="translate(0,1771.654) scale(1,-1)"><g mask="url(#vhBBmr3WWdjOTCV7EZ5Z_top_mech-mask)" clip-path="url(#vhBBmr3WWdjOTCV7EZ5Z_top_outline)"><rect x="393.701" y="393.701" width="3937.008" height="984.252" fill="currentColor" class="vhBBmr3WWdjOTCV7EZ5Z_fr4"/><use xlink:href="#vhBBmr3WWdjOTCV7EZ5Z_top_copper" fill="currentColor" stroke="currentColor" class="vhBBmr3WWdjOTCV7EZ5Z_cu"/><use xlink:href="#vhBBmr3WWdjOTCV7EZ5Z_top_copper" fill="currentColor" stroke="currentColor" class="vhBBmr3WWdjOTCV7EZ5Z_cf" mask="url(#vhBBmr3WWdjOTCV7EZ5Z_top_cf-mask)"/><g mask="url(#vhBBmr3WWdjOTCV7EZ5Z_top_sm-mask)"><rect x="393.701" y="393.701" width="3937.008" height="984.252" fill="currentColor" class="vhBBmr3WWdjOTCV7EZ5Z_sm"/><use xlink:href="#vhBBmr3WWdjOTCV7EZ5Z_top_silkscreen" fill="currentColor" stroke="currentColor" class="vhBBmr3WWdjOTCV7EZ5Z_ss"/></g></g></g></svg>