<svg version="1.1" xmlns="http://www.w3.org/2000/svg" xmlns:xlink="http://www.w3.org/1999/xlink" stroke-linecap="round" stroke-linejoin="round" stroke-width="0" fill-rule="evenodd" width="3.464622in" height="0.9291889999999999in" viewBox="629.894 421.232 3464.622 929.189" id="QxA6ABJ6KhP3tihWb0oH"><defs><rect x="-31.496" y="-35.433" width="62.992" height="70.866" id="QxA6ABJ6KhP3tihWb0oH_pad-16"/><rect x="-62.5985" y="-25" width="125.197" height="50" id="QxA6ABJ6KhP3tihWb0oH_pad-18"/><circle cx="0" cy="0" r="30" id="QxA6ABJ6KhP3tihWb0oH_pad-33"/><rect x="-30" y="-30" width="60" height="60" id="QxA6ABJ6KhP3tihWb0oH_pad-34"/></defs><g transform="translate(0,1771.653) scale(1,-1)" fill="currentColor" stroke="currentColor"><path d="M 3838.583 923.327 3882.824 923.327 3912.45 893.701 3912.45 648.671 3893.701 629.921 M 2909.449 629.921 2924.95 629.921 2924.95 893.701 2895.324 923.327 2854.331 923.327 M 1870.079 923.327 1895.325 923.327 1925.197 893.455 1925.197 629.921 M 885.827 923.327 842.076 923.327 812.45 893.701 812.45 629.921 830.709 629.921 M 1401.181 935.827 1479.134 935.827 1602.362 1059.055 3401.575 1059.055 3783.465 677.165 3783.465 629.921 M 1275.984 835.827 1446.063 835.827 1637.795 1027.559 2456.693 1027.559 2799.213 685.039 2799.213 629.921 M 1401.181 735.827 1638.189 735.827 1744.094 629.921 1814.961 629.921 M 1275.984 635.827 946.85 635.827 940.945 629.921" fill="none" stroke-width="12"/><path d="M 644.94 1313.025 4079.474 1313.025 M 644.94 1288.156 4079.474 1288.156 M 644.94 1263.287 4079.474 1263.287 M 644.94 1238.419 4079.474 1238.419 M 644.94 1213.55 4079.474 1213.55 M 644.94 1188.681 4079.474 1188.681 M 644.94 1163.812 1309.573 1163.812 M 1492.774 1163.812 4079.474 1163.812 M 644.94 1138.944 1309.573 1138.944 M 1492.774 1138.944 4079.474 1138.944 M 644.94 1114.075 1309.573 1114.075 M 1492.774 1114.075 4079.474 1114.075 M 644.94 1089.206 1309.573 1089.206 M 1492.774 1089.206 1587.748 1089.206 M 3416.167 1089.206 4079.474 1089.206 M 644.94 1064.337 1184.409 1064.337 M 1367.575 1064.337 1559.185 1064.337 M 3444.731 1064.337 4079.474 1064.337 M 644.94 1039.469 1184.409 1039.469 M 1367.575 1039.469 1534.316 1039.469 M 3469.598 1039.469 4079.474 1039.469 M 644.94 1014.6 1184.409 1014.6 M 1367.575 1014.6 1509.449 1014.6 M 2518.093 1014.6 3397.567 1014.6 M 3494.467 1014.6 4079.474 1014.6 M 644.94 989.731 1184.409 989.731 M 1367.575 989.731 1484.581 989.731 M 1648.404 989.731 2446.062 989.731 M 2542.962 989.731 3422.434 989.731 M 3519.335 989.731 4079.474 989.731 M 644.94 964.862 845.054 964.862 M 926.63 964.862 1309.573 964.862 M 1623.537 964.862 1829.285 964.862 M 1910.861 964.862 2470.93 964.862 M 2567.829 964.862 2813.552 964.862 M 2895.129 964.862 3447.303 964.862 M 3544.202 964.862 3797.783 964.862 M 3879.361 964.862 4079.474 964.862 M 644.94 939.993 810.281 939.993 M 942.311 939.993 1309.573 939.993 M 1598.669 939.993 1813.604 939.993 M 1927.117 939.993 2495.798 939.993 M 2592.697 939.993 2797.87 939.993 M 2927.101 939.993 3472.171 939.993 M 3569.07 939.993 3782.102 939.993 M 3914.598 939.993 4079.474 939.993 M 644.94 915.125 785.521 915.125 M 944.214 915.125 1309.573 915.125 M 1573.802 915.125 1811.701 915.125 M 1951.913 915.125 2520.665 915.125 M 2617.564 915.125 2795.933 915.125 M 2951.862 915.125 3497.038 915.125 M 3593.974 915.125 3780.201 915.125 M 3939.395 915.125 4079.474 915.125 M 644.94 890.256 777.448 890.256 M 944.823 890.256 1309.573 890.256 M 1548.933 890.256 1811.092 890.256 M 1960.202 890.256 2545.533 890.256 M 2642.433 890.256 2795.323 890.256 M 2959.936 890.256 3521.906 890.256 M 3618.841 890.256 3779.591 890.256 M 3947.433 890.256 4079.474 890.256 M 644.94 865.387 777.448 865.387 M 944.823 865.387 1184.409 865.387 M 1524.066 865.387 1811.092 865.387 M 1960.202 865.387 2570.4 865.387 M 2667.301 865.387 2795.323 865.387 M 2959.936 865.387 3546.81 865.387 M 3643.709 865.387 3779.591 865.387 M 3947.433 865.387 4079.474 865.387 M 644.94 840.518 777.448 840.518 M 944.823 840.518 1184.409 840.518 M 1499.198 840.518 1811.092 840.518 M 1960.202 840.518 2595.269 840.518 M 2692.168 840.518 2795.323 840.518 M 2959.936 840.518 3571.677 840.518 M 3668.576 840.518 3779.591 840.518 M 3947.433 840.518 4079.474 840.518 M 644.94 815.65 777.448 815.65 M 944.823 815.65 1184.409 815.65 M 1474.331 815.65 1811.092 815.65 M 1960.202 815.65 2620.136 815.65 M 2717.035 815.65 2795.323 815.65 M 2959.936 815.65 3596.545 815.65 M 3693.445 815.65 3779.591 815.65 M 3947.433 815.65 4079.474 815.65 M 644.94 790.781 777.448 790.781 M 847.433 790.781 1184.409 790.781 M 1367.575 790.781 1890.217 790.781 M 1960.202 790.781 2645.004 790.781 M 2741.94 790.781 2889.949 790.781 M 2959.936 790.781 3621.412 790.781 M 3718.312 790.781 3877.446 790.781 M 3947.433 790.781 4079.474 790.781 M 644.94 765.912 777.448 765.912 M 847.433 765.912 1309.573 765.912 M 1652.962 765.912 1890.217 765.912 M 1960.202 765.912 2669.871 765.912 M 2766.807 765.912 2889.949 765.912 M 2959.936 765.912 3646.281 765.912 M 3743.18 765.912 3877.446 765.912 M 3947.433 765.912 4079.474 765.912 M 644.94 741.043 777.448 741.043 M 847.433 741.043 1309.573 741.043 M 1681.419 741.043 1890.217 741.043 M 1960.202 741.043 2694.776 741.043 M 2791.675 741.043 2889.949 741.043 M 2959.936 741.043 3671.148 741.043 M 3768.047 741.043 3877.446 741.043 M 3947.433 741.043 4079.474 741.043 M 644.94 716.175 777.448 716.175 M 847.433 716.175 1309.573 716.175 M 1706.286 716.175 1890.217 716.175 M 1960.202 716.175 2719.643 716.175 M 2816.542 716.175 2889.949 716.175 M 2959.936 716.175 3696.016 716.175 M 3792.915 716.175 3877.446 716.175 M 3947.433 716.175 4079.474 716.175 M 644.94 691.306 770.235 691.306 M 1001.449 691.306 1309.573 691.306 M 1492.774 691.306 1634.255 691.306 M 1731.154 691.306 1754.466 691.306 M 1985.68 691.306 2738.734 691.306 M 2969.948 691.306 3720.883 691.306 M 3954.178 691.306 4079.474 691.306 M 644.94 666.437 770.235 666.437 M 1367.575 666.437 1659.122 666.437 M 1985.68 666.437 2738.734 666.437 M 2969.948 666.437 3722.965 666.437 M 3954.178 666.437 4079.474 666.437 M 644.94 641.568 770.235 641.568 M 1367.575 641.568 1683.99 641.568 M 1985.68 641.568 2738.734 641.568 M 2969.948 641.568 3722.965 641.568 M 3954.178 641.568 4079.474 641.568 M 644.94 616.699 770.235 616.699 M 1367.575 616.699 1708.857 616.699 M 1985.68 616.699 2738.734 616.699 M 2969.948 616.699 3722.965 616.699 M 3954.178 616.699 4079.474 616.699 M 644.94 591.831 770.235 591.831 M 1001.449 591.831 1184.409 591.831 M 1367.575 591.831 1754.466 591.831 M 1985.68 591.831 2738.734 591.831 M 2969.948 591.831 3722.965 591.831 M 3954.178 591.831 4079.474 591.831 M 644.94 566.962 4079.474 566.962 M 644.94 542.093 4079.474 542.093 M 644.94 517.224 4079.474 517.224 M 644.94 492.356 4079.474 492.356 M 644.94 467.487 4079.474 467.487 M 644.94 442.618 4079.474 442.618 M 1196.08 687.319 1312.093 687.319 1312.091 784.344 1186.894 784.335 1186.894 887.319 1312.093 887.319 1312.091 984.344 1186.894 984.335 1186.894 1087.319 1312.093 1087.319 1312.091 1187.319 1490.272 1187.319 1490.272 1084.335 1365.072 1084.335 1365.075 987.31 1484.657 987.319 1581.26 1083.762 1585.385 1086.76 1589.928 1089.073 1594.777 1090.65 1599.812 1091.448 1666.667 1091.547 3404.125 1091.448 3409.16 1090.65 3414.009 1089.073 3418.552 1086.76 3422.677 1083.762 3470.02 1036.56 3808.172 698.268 3811.169 694.143 3812.42 691.907 3879.958 691.846 3879.958 791.812 3782.091 791.835 3782.091 904.819 3785.213 904.819 3783.651 910.139 3782.265 918.895 3782.265 927.759 3783.651 936.514 3786.391 944.945 3790.415 952.844 3795.626 960.016 3801.894 966.283 3809.066 971.495 3816.965 975.518 3825.395 978.259 3834.151 979.644 3843.014 979.644 3851.77 978.259 3860.201 975.518 3868.1 971.495 3875.272 966.283 3881.539 960.016 3884.797 955.769 3890.409 954.921 3895.259 953.345 3899.802 951.031 3903.927 948.034 3935.425 916.676 3938.738 912.799 3941.402 908.451 3943.352 903.741 3944.542 898.783 3944.942 893.701 3944.942 691.852 3951.689 691.846 3951.689 567.996 3725.476 567.996 3725.476 689.199 3388.126 1026.552 2503.644 1026.563 2823.92 706.142 2826.917 702.017 2829.231 697.474 2830.808 692.614 2833.088 691.846 2892.476 691.846 2892.45 791.835 2797.839 791.835 2797.839 904.819 2800.961 904.819 2799.399 910.139 2798.013 918.895 2798.013 927.759 2799.399 936.514 2802.139 944.945 2806.163 952.844 2811.374 960.016 2817.642 966.283 2824.814 971.495 2832.713 975.518 2841.143 978.259 2849.899 979.644 2858.762 979.644 2867.518 978.259 2875.949 975.518 2883.848 971.495 2891.02 966.283 2897.287 960.016 2900.833 955.336 2905.365 954.228 2910.075 952.278 2914.423 949.614 2918.306 946.295 2949.657 914.803 2952.655 910.678 2954.969 906.135 2956.545 901.286 2957.343 896.251 2957.442 829.396 2957.442 691.852 2967.437 691.846 2967.437 567.996 2741.224 567.996 2741.224 691.846 2746.428 691.846 2443.255 995.046 1651.273 995.067 1467.165 811.119 1463.041 808.122 1458.497 805.808 1453.648 804.232 1448.613 803.434 1381.759 803.335 1365.072 803.335 1365.075 787.31 1490.272 787.319 1490.272 768.336 1640.739 768.219 1645.774 767.421 1650.623 765.845 1655.167 763.531 1659.291 760.534 1706.635 713.332 1756.951 663.016 1756.972 691.846 1892.723 691.846 1892.705 791.866 1813.587 791.835 1813.587 904.819 1816.709 904.819 1815.147 910.139 1813.761 918.895 1813.761 927.759 1815.147 936.514 1817.887 944.945 1821.911 952.844 1827.122 960.016 1833.39 966.283 1840.562 971.495 1848.461 975.518 1856.891 978.259 1865.647 979.644 1874.51 979.644 1883.266 978.259 1891.697 975.518 1899.596 971.495 1906.768 966.283 1913.035 960.016 1918.247 952.844 1922.27 944.945 1923.801 940.801 1949.904 914.558 1952.902 910.433 1955.215 905.89 1956.791 901.041 1957.589 896.005 1957.689 829.151 1957.689 691.822 1983.185 691.846 1983.185 567.996 1756.972 567.996 1756.972 597.457 1741.545 597.529 1736.509 598.327 1731.66 599.903 1727.117 602.217 1722.992 605.214 1675.648 652.416 1624.723 703.341 1490.239 703.335 1490.272 684.335 1365.072 684.335 1365.075 584.335 1186.894 584.335 1186.894 603.318 998.923 603.335 998.933 567.996 772.72 567.996 772.72 691.846 779.933 691.846 780.058 896.251 780.856 901.286 782.432 906.135 784.745 910.678 787.743 914.803 819.101 946.302 822.978 949.613 827.325 952.277 832.035 954.228 836.993 955.419 839.537 955.719 842.87 960.016 849.138 966.283 856.31 971.495 864.209 975.518 872.639 978.259 881.395 979.644 890.259 979.644 899.014 978.259 907.445 975.518 915.344 971.495 922.516 966.283 928.783 960.016 933.995 952.844 938.018 944.945 940.759 936.514 942.144 927.759 942.144 918.895 940.759 910.139 939.164 904.814 942.319 904.819 942.319 791.835 844.937 791.835 844.942 691.852 998.933 691.846 998.933 668.343 1186.879 668.319 1186.894 687.319 1196.08 687.319 M 642.445 433.76 4082.016 433.76 4081.988 1337.921 642.394 1337.894 642.421 433.732" fill="none" stroke-width="25"/><path d="M 1401.181 1187.283 1401.181 1084.37 M 1312.126 1135.827 1490.236 1135.827 M 3838.583 848.327 3838.583 791.87 M 3782.126 848.327 3838.583 848.327 M 2854.331 848.327 2854.331 791.87 M 2797.874 848.327 2854.331 848.327 M 1870.079 848.327 1870.079 791.87 M 1813.622 848.327 1870.079 848.327 M 885.827 848.327 885.827 791.87 M 885.827 848.327 942.283 848.327" fill="none" stroke-width="20"/><use xlink:href="#QxA6ABJ6KhP3tihWb0oH_pad-16" x="3893.701" y="629.921"/><use xlink:href="#QxA6ABJ6KhP3tihWb0oH_pad-16" x="3783.465" y="629.921"/><use xlink:href="#QxA6ABJ6KhP3tihWb0oH_pad-16" x="2909.449" y="629.921"/><use xlink:href="#QxA6ABJ6KhP3tihWb0oH_pad-16" x="2799.213" y="629.921"/><use xlink:href="#QxA6ABJ6KhP3tihWb0oH_pad-16" x="1925.197" y="629.921"/><use xlink:href="#QxA6ABJ6KhP3tihWb0oH_pad-16" x="1814.961" y="629.921"/><use xlink:href="#QxA6ABJ6KhP3tihWb0oH_pad-16" x="830.709" y="629.921"/><use xlink:href="#QxA6ABJ6KhP3tihWb0oH_pad-16" x="940.945" y="629.921"/><use xlink:href="#QxA6ABJ6KhP3tihWb0oH_pad-18" x="1275.984" y="635.827"/><use xlink:href="#QxA6ABJ6KhP3tihWb0oH_pad-18" x="1401.181" y="735.827"/><use xlink:href="#QxA6ABJ6KhP3tihWb0oH_pad-18" x="1275.984" y="835.827"/><use xlink:href="#QxA6ABJ6KhP3tihWb0oH_pad-18" x="1401.181" y="935.827"/><use xlink:href="#QxA6ABJ6KhP3tihWb0oH_pad-18" x="1275.984" y="1035.827"/><use xlink:href="#QxA6ABJ6KhP3tihWb0oH_pad-18" x="1401.181" y="1135.827"/><use xlink:href="#QxA6ABJ6KhP3tihWb0oH_pad-33" x="3838.583" y="923.327"/><use xlink:href="#QxA6ABJ6KhP3tihWb0oH_pad-34" x="3838.583" y="848.327"/><use xlink:href="#QxA6ABJ6KhP3tihWb0oH_pad-33" x="2854.331" y="923.327"/><use xlink:href="#QxA6ABJ6KhP3tihWb0oH_pad-34" x="2854.331" y="848.327"/><use xlink:href="#QxA6ABJ6KhP3tihWb0oH_pad-33" x="1870.079" y="923.327"/><use xlink:href="#QxA6ABJ6KhP3tihWb0oH_pad-34" x="1870.079" y="848.327"/><use xlink:href="#QxA6ABJ6KhP3tihWb0oH_pad-33" x="885.827" y="923.327"/><use xlink:href="#QxA6ABJ6KhP3tihWb0oH_pad-34" x="885.827" y="848.327"/></g></svg>