<svg version="1.1" xmlns="http://www.w3.org/2000/svg" xmlns:xlink="http://www.w3.org/1999/xlink" stroke-linecap="round" stroke-linejoin="round" stroke-width="0" fill-rule="evenodd" width="3.8188969999999998in" height="0.8661420000000001in" viewBox="452.756 452.756 3818.897 866.142" id="JRnGCDIHjlqDpLe9imz6"><defs><circle cx="0" cy="0" r="59.055" id="JRnGCDIHjlqDpLe9imz6_pad-35"/><rect x="-35.433" y="-39.37" width="70.866" height="78.74" id="JRnGCDIHjlqDpLe9imz6_pad-43"/><rect x="-66.5355" y="-28.937" width="133.071" height="57.874" id="JRnGCDIHjlqDpLe9imz6_pad-41"/><circle cx="0" cy="0" r="33.937" id="JRnGCDIHjlqDpLe9imz6_pad-39"/><rect x="-33.937" y="-33.937" width="67.874" height="67.874" id="JRnGCDIHjlqDpLe9imz6_pad-37"/></defs><g transform="translate(0,1771.654) scale(1,-1)" fill="currentColor" stroke="currentColor"><use xlink:href="#JRnGCDIHjlqDpLe9imz6_pad-35" x="511.811" y="511.811"/><use xlink:href="#JRnGCDIHjlqDpLe9imz6_pad-35" x="511.811" y="1259.843"/><use xlink:href="#JRnGCDIHjlqDpLe9imz6_pad-35" x="4212.598" y="1259.843"/><use xlink:href="#JRnGCDIHjlqDpLe9imz6_pad-35" x="4212.598" y="511.811"/><use xlink:href="#JRnGCDIHjlqDpLe9imz6_pad-43" x="3893.701" y="629.921"/><use xlink:href="#JRnGCDIHjlqDpLe9imz6_pad-43" x="3783.465" y="629.921"/><use xlink:href="#JRnGCDIHjlqDpLe9imz6_pad-43" x="2909.449" y="629.921"/><use xlink:href="#JRnGCDIHjlqDpLe9imz6_pad-43" x="2799.213" y="629.921"/><use xlink:href="#JRnGCDIHjlqDpLe9imz6_pad-43" x="1925.197" y="629.921"/><use xlink:href="#JRnGCDIHjlqDpLe9imz6_pad-43" x="1814.961" y="629.921"/><use xlink:href="#JRnGCDIHjlqDpLe9imz6_pad-43" x="830.709" y="629.921"/><use xlink:href="#JRnGCDIHjlqDpLe9imz6_pad-43" x="940.945" y="629.921"/><use xlink:href="#JRnGCDIHjlqDpLe9imz6_pad-41" x="1275.984" y="635.827"/><use xlink:href="#JRnGCDIHjlqDpLe9imz6_pad-41" x="1401.181" y="735.827"/><use xlink:href="#JRnGCDIHjlqDpLe9imz6_pad-41" x="1275.984" y="835.827"/><use xlink:href="#JRnGCDIHjlqDpLe9imz6_pad-41" x="1401.181" y="935.827"/><use xlink:href="#JRnGCDIHjlqDpLe9imz6_pad-41" x="1275.984" y="1035.827"/><use xlink:href="#JRnGCDIHjlqDpLe9imz6_pad-41" x="1401.181" y="1135.827"/><use xlink:href="#JRnGCDIHjlqDpLe9imz6_pad-39" x="3838.583" y="923.327"/><use xlink:href="#JRnGCDIHjlqDpLe9imz6_pad-37" x="3838.583" y="848.327"/><use xlink:href="#JRnGCDIHjlqDpLe9imz6_pad-39" x="2854.331" y="923.327"/><use xlink:href="#JRnGCDIHjlqDpLe9imz6_pad-37" x="2854.331" y="848.327"/><use xlink:href="#JRnGCDIHjlqDpLe9imz6_pad-39" x="1870.079" y="923.327"/><use xlink:href="#JRnGCDIHjlqDpLe9imz6_pad-37" x="1870.079" y="848.327"/><use xlink:href="#JRnGCDIHjlqDpLe9imz6_pad-39" x="885.827" y="923.327"/><use xlink:href="#JRnGCDIHjlqDpLe9imz6_pad-37" x="885.827" y="848.327"/></g></svg>